<?xml version="1.0" encoding="UTF-8" standalone="no"?>
<!-- Created with Inkscape (http://www.inkscape.org/) -->

<svg
   xmlns:dc="http://purl.org/dc/elements/1.1/"
   xmlns:cc="http://creativecommons.org/ns#"
   xmlns:rdf="http://www.w3.org/1999/02/22-rdf-syntax-ns#"
   xmlns:svg="http://www.w3.org/2000/svg"
   xmlns="http://www.w3.org/2000/svg"
   xmlns:sodipodi="http://sodipodi.sourceforge.net/DTD/sodipodi-0.dtd"
   xmlns:inkscape="http://www.inkscape.org/namespaces/inkscape"
   version="1.1"
   id="svg2"
   xml:space="preserve"
   width="331.98685"
   height="240"
   viewBox="0 0 331.98685 240"
   sodipodi:docname="base_logo_transparent_background.svg"
   inkscape:version="0.92.4 (5da689c313, 2019-01-14)"><metadata
     id="metadata8"><rdf:RDF><cc:Work
         rdf:about=""><dc:format>image/svg+xml</dc:format><dc:type
           rdf:resource="http://purl.org/dc/dcmitype/StillImage" /><dc:title></dc:title></cc:Work></rdf:RDF></metadata><defs
     id="defs6" /><sodipodi:namedview
     pagecolor="#ffffff"
     bordercolor="#666666"
     borderopacity="1"
     objecttolerance="10"
     gridtolerance="10"
     guidetolerance="10"
     inkscape:pageopacity="0"
     inkscape:pageshadow="2"
     inkscape:window-width="1920"
     inkscape:window-height="1017"
     id="namedview4"
     showgrid="false"
     inkscape:zoom="0.98333333"
     inkscape:cx="165.99342"
     inkscape:cy="120"
     inkscape:window-x="-8"
     inkscape:window-y="-8"
     inkscape:window-maximized="1"
     inkscape:current-layer="g10" /><g
     id="g10"
     inkscape:groupmode="layer"
     inkscape:label="base_logo_transparent_background"
     transform="matrix(1.3333333,0,0,1.3333333,0,6e-6)"><g
       id="g12"><path
         d="m 16.793,172.492 h -0.934 l -1.23,6.488 -1.457,-6.488 H 12.09 l -1.426,6.488 -1.187,-6.488 H 8.48 l 1.5,7.379 h 1.274 l 1.371,-6.18 1.359,6.18 h 1.309 z"
         style="fill:#85714d;fill-opacity:1;fill-rule:nonzero;stroke:none"
         id="path14"
         inkscape:connector-curvature="0" /><path
         d="m 31.578,172.492 h -3.992 v 7.379 h 4.078 v -0.812 h -3.062 v -2.528 h 2.484 v -0.816 h -2.484 v -2.41 h 2.859 z"
         style="fill:#85714d;fill-opacity:1;fill-rule:nonzero;stroke:none"
         id="path16"
         inkscape:connector-curvature="0" /><path
         d="m 43.402,172.492 h -1.539 v 7.379 h 1.766 c 1.598,0 3.473,-0.719 3.473,-3.726 0,-3.063 -1.813,-3.653 -3.7,-3.653 z m 0.227,0.813 c 1.18,0 2.391,0.343 2.391,2.84 0,2.429 -1.161,2.921 -2.317,2.921 h -0.824 v -5.761 z"
         style="fill:#85714d;fill-opacity:1;fill-rule:nonzero;stroke:none"
         id="path18"
         inkscape:connector-curvature="0" /><path
         d="m 59.285,172.492 h -1.543 v 7.379 h 1.766 c 1.597,0 3.472,-0.719 3.472,-3.726 0,-3.063 -1.808,-3.653 -3.695,-3.653 z m 0.223,0.813 c 1.18,0 2.39,0.343 2.39,2.84 0,2.429 -1.156,2.921 -2.312,2.921 h -0.824 v -5.761 z"
         style="fill:#85714d;fill-opacity:1;fill-rule:nonzero;stroke:none"
         id="path20"
         inkscape:connector-curvature="0" /><path
         d="m 72.062,172.492 h 1.02 v 7.379 h -1.02 z"
         style="fill:#85714d;fill-opacity:1;fill-rule:nonzero;stroke:none"
         id="path22"
         inkscape:connector-curvature="0" /><path
         d="m 88.152,172.492 h -0.953 v 4.028 c 0,0.898 0.117,2.078 0.137,2.25 l -3.031,-6.278 h -1.328 v 7.379 h 0.953 v -3.383 c 0,-1.371 -0.086,-2.273 -0.137,-2.883 l 2.996,6.266 h 1.363 z"
         style="fill:#85714d;fill-opacity:1;fill-rule:nonzero;stroke:none"
         id="path24"
         inkscape:connector-curvature="0" /><path
         d="m 102.051,172.363 c -1.66,0 -3.184,1.328 -3.184,3.813 0,2.551 1.192,3.824 3.024,3.824 1.039,0 1.808,-0.258 2.484,-0.652 v -3.567 h -2.434 l 0.121,0.824 h 1.305 v 2.215 c -0.418,0.246 -0.91,0.344 -1.402,0.344 -1.297,0 -2.016,-0.867 -2.016,-2.988 0,-2.176 1.063,-2.977 2.121,-2.977 0.664,0 1.106,0.18 1.618,0.598 l 0.601,-0.621 c -0.633,-0.524 -1.242,-0.813 -2.238,-0.813 z"
         style="fill:#85714d;fill-opacity:1;fill-rule:nonzero;stroke:none"
         id="path26"
         inkscape:connector-curvature="0" /><path
         d="m 116.438,172.363 c -1.36,0 -2.325,0.793 -2.325,1.926 0,1.149 0.75,1.695 2.188,2.133 1.25,0.387 1.594,0.707 1.594,1.426 0,0.886 -0.719,1.316 -1.586,1.316 -0.801,0 -1.379,-0.289 -1.926,-0.75 l -0.571,0.633 c 0.614,0.601 1.45,0.953 2.508,0.953 1.66,0 2.637,-0.898 2.637,-2.184 0,-1.414 -1.008,-1.875 -2.187,-2.242 -1.329,-0.406 -1.618,-0.707 -1.618,-1.328 0,-0.707 0.59,-1.047 1.328,-1.047 0.61,0 1.125,0.192 1.684,0.641 l 0.555,-0.621 c -0.621,-0.555 -1.262,-0.856 -2.281,-0.856 z"
         style="fill:#85714d;fill-opacity:1;fill-rule:nonzero;stroke:none"
         id="path28"
         inkscape:connector-curvature="0" /><path
         d="m 140.586,172.363 c -1.242,0 -1.918,0.727 -1.918,1.66 0,0.739 0.41,1.231 1.039,1.844 -0.91,0.578 -1.488,1.199 -1.488,2.129 0,1.223 0.984,2.004 2.398,2.004 1.02,0 1.77,-0.352 2.367,-1.008 l 1.039,1.008 0.707,-0.578 -1.199,-1.125 c 0.356,-0.535 0.688,-1.231 0.953,-2.109 l -0.918,-0.27 c -0.164,0.695 -0.398,1.309 -0.644,1.812 l -1.887,-1.781 c 0.805,-0.469 1.512,-1.039 1.512,-1.957 0,-0.933 -0.793,-1.629 -1.961,-1.629 z m 0.012,0.727 c 0.601,0 0.984,0.355 0.984,0.953 0,0.57 -0.437,0.977 -1.102,1.383 -0.515,-0.481 -0.847,-0.856 -0.847,-1.414 0,-0.524 0.344,-0.922 0.965,-0.922 z m -0.321,3.312 2.141,2.043 c -0.48,0.496 -1.008,0.774 -1.691,0.774 -0.879,0 -1.5,-0.461 -1.5,-1.254 0,-0.633 0.343,-1.102 1.05,-1.563 z"
         style="fill:#85714d;fill-opacity:1;fill-rule:nonzero;stroke:none"
         id="path30"
         inkscape:connector-curvature="0" /><path
         d="m 168.586,172.492 h -3.996 v 7.379 h 4.082 v -0.812 h -3.063 v -2.528 h 2.485 v -0.816 h -2.485 v -2.41 h 2.86 z"
         style="fill:#85714d;fill-opacity:1;fill-rule:nonzero;stroke:none"
         id="path32"
         inkscape:connector-curvature="0" /><path
         d="m 183.164,172.492 h -1.031 l -1.852,6.278 -1.851,-6.278 h -1.094 l 2.379,7.379 h 1.09 z"
         style="fill:#85714d;fill-opacity:1;fill-rule:nonzero;stroke:none"
         id="path34"
         inkscape:connector-curvature="0" /><path
         d="m 196.68,172.492 h -3.996 v 7.379 h 4.082 v -0.812 h -3.067 v -2.528 h 2.485 v -0.816 h -2.485 v -2.41 h 2.86 z"
         style="fill:#85714d;fill-opacity:1;fill-rule:nonzero;stroke:none"
         id="path36"
         inkscape:connector-curvature="0" /><path
         d="m 212.109,172.492 h -0.953 v 4.028 c 0,0.898 0.117,2.078 0.141,2.25 l -3.031,-6.278 h -1.328 v 7.379 h 0.953 v -3.383 c 0,-1.371 -0.086,-2.273 -0.141,-2.883 l 3,6.266 h 1.359 z"
         style="fill:#85714d;fill-opacity:1;fill-rule:nonzero;stroke:none"
         id="path38"
         inkscape:connector-curvature="0" /><path
         d="m 227.266,172.492 h -5.27 v 0.867 h 2.098 v 6.512 h 1.019 v -6.512 h 2.047 z"
         style="fill:#85714d;fill-opacity:1;fill-rule:nonzero;stroke:none"
         id="path40"
         inkscape:connector-curvature="0" /><path
         d="m 237.992,172.363 c -1.359,0 -2.324,0.793 -2.324,1.926 0,1.149 0.75,1.695 2.187,2.133 1.254,0.387 1.594,0.707 1.594,1.426 0,0.886 -0.715,1.316 -1.586,1.316 -0.801,0 -1.379,-0.289 -1.925,-0.75 l -0.567,0.633 c 0.609,0.601 1.445,0.953 2.504,0.953 1.66,0 2.637,-0.898 2.637,-2.184 0,-1.414 -1.008,-1.875 -2.188,-2.242 -1.328,-0.406 -1.617,-0.707 -1.617,-1.328 0,-0.707 0.59,-1.047 1.328,-1.047 0.613,0 1.125,0.192 1.684,0.641 l 0.554,-0.621 c -0.621,-0.555 -1.261,-0.856 -2.281,-0.856 z"
         style="fill:#85714d;fill-opacity:1;fill-rule:nonzero;stroke:none"
         id="path42"
         inkscape:connector-curvature="0" /><path
         d="m 0,159.949 h 248.988 v 0.68 H 0 Z"
         style="fill:#85714d;fill-opacity:1;fill-rule:nonzero;stroke:none"
         id="path44"
         inkscape:connector-curvature="0" /><path
         d="m 23.773,119.496 c -0.105,-0.101 -0.23,-0.105 -0.355,-0.062 -0.113,0.039 -0.188,0.128 -0.238,0.234 -0.082,0.172 -0.168,0.348 -0.235,0.523 -0.414,1.075 -0.785,2.161 -1.086,3.27 -0.621,2.289 -1.211,4.582 -1.797,6.879 -0.515,2.012 -1.023,4.027 -1.5,6.051 -0.457,1.929 -0.906,3.867 -1.347,5.8 -0.453,2 -0.883,4 -1.297,6.008 -0.453,2.199 -0.906,4.403 -1.336,6.61 -0.383,1.98 -0.742,3.968 -1.113,5.953 -0.34,1.812 -0.711,3.617 -1.164,5.406 -0.176,0.695 -0.367,1.387 -0.676,2.035 -0.109,0.227 -0.231,0.442 -0.414,0.617 -0.156,0.153 -0.332,0.18 -0.527,0.09 -0.118,-0.051 -0.219,-0.125 -0.321,-0.207 -0.269,-0.223 -0.496,-0.484 -0.707,-0.762 -0.605,-0.816 -1.055,-1.718 -1.457,-2.644 -0.652,-1.5 -1.168,-3.047 -1.613,-4.617 -0.567,-2.024 -1.055,-4.063 -1.485,-6.121 -0.414,-1.985 -0.757,-3.981 -1.078,-5.985 -0.152,-0.965 -0.3,-1.929 -0.433,-2.898 -0.149,-1.098 -0.309,-2.188 -0.461,-3.285 -0.078,-0.59 -0.149,-1.18 -0.223,-1.77 -0.09,-0.738 -0.187,-1.476 -0.277,-2.215 -0.082,-0.652 -0.156,-1.308 -0.231,-1.961 -0.093,-0.808 -0.191,-1.617 -0.281,-2.425 -0.066,-0.606 -0.125,-1.215 -0.187,-1.821 -0.094,-0.879 -0.188,-1.758 -0.282,-2.64 -0.086,-0.844 -0.175,-1.688 -0.254,-2.536 -0.086,-0.957 -0.187,-1.918 -0.3,-2.871 -0.094,-0.84 -0.2,-1.675 -0.352,-2.504 -0.043,-0.238 -0.086,-0.476 -0.18,-0.699 -0.066,-0.172 -0.199,-0.242 -0.347,-0.203 -0.153,0.039 -0.239,0.188 -0.215,0.367 0.019,0.133 0.043,0.266 0.055,0.399 0.086,0.937 0.175,1.875 0.257,2.812 0.047,0.551 0.086,1.102 0.125,1.653 0.059,0.757 0.125,1.511 0.172,2.269 0.039,0.649 0.086,1.301 0.125,1.949 0.043,0.68 0.082,1.36 0.129,2.039 0.031,0.438 0.059,0.875 0.086,1.313 0.039,0.652 0.082,1.301 0.129,1.953 0.039,0.535 0.078,1.07 0.129,1.609 0.074,0.852 0.137,1.707 0.219,2.559 0.09,0.945 0.183,1.891 0.289,2.836 0.086,0.766 0.172,1.531 0.258,2.301 0.121,1.07 0.261,2.136 0.41,3.203 0.164,1.148 0.332,2.297 0.527,3.441 0.223,1.274 0.445,2.543 0.719,3.805 0.254,1.164 0.543,2.32 0.855,3.469 0.297,1.105 0.649,2.191 1.016,3.273 0.383,1.113 0.824,2.207 1.34,3.27 0.519,1.066 1.09,2.105 1.828,3.043 0.375,0.476 0.793,0.914 1.312,1.234 0.262,0.16 0.543,0.285 0.879,0.269 0.289,0.02 0.551,-0.085 0.789,-0.273 0.235,-0.184 0.403,-0.418 0.547,-0.672 0.254,-0.449 0.43,-0.929 0.582,-1.418 0.36,-1.137 0.633,-2.297 0.887,-3.461 0.469,-2.117 0.914,-4.242 1.379,-6.359 0.508,-2.32 1.023,-4.641 1.547,-6.957 0.484,-2.149 0.98,-4.301 1.48,-6.449 0.481,-2.055 0.973,-4.114 1.461,-6.168 0.391,-1.649 0.789,-3.297 1.172,-4.946 0.43,-1.839 0.844,-3.679 1.262,-5.519 0.449,-1.977 0.894,-3.953 1.394,-5.922 0.149,-0.59 0.274,-1.188 0.5,-1.758 0.055,-0.14 0.035,-0.293 -0.09,-0.414 z"
         style="fill:#85714d;fill-opacity:1;fill-rule:nonzero;stroke:none"
         id="path46"
         inkscape:connector-curvature="0" /><path
         d="m 40.906,144.809 c -0.238,0.019 -0.461,0.082 -0.656,0.222 -0.148,0.106 -0.297,0.219 -0.434,0.34 -0.644,0.582 -1.277,1.172 -1.921,1.75 -0.504,0.449 -1.028,0.875 -1.59,1.25 -1.051,0.707 -2.121,0.586 -3.043,-0.121 -0.309,-0.238 -0.574,-0.523 -0.821,-0.832 -0.379,-0.477 -0.703,-0.996 -1.062,-1.492 -0.281,-0.391 -0.563,-0.785 -0.941,-1.094 -0.379,-0.312 -0.813,-0.492 -1.313,-0.469 -0.316,0.016 -0.613,0.106 -0.895,0.246 -0.761,0.375 -1.406,0.907 -2.019,1.481 -0.723,0.683 -1.359,1.449 -2.035,2.18 -0.168,0.179 -0.344,0.351 -0.563,0.507 -0.035,-0.152 0,-0.261 0.012,-0.375 0.098,-0.937 0.379,-1.816 0.844,-2.632 0.332,-0.579 0.742,-1.094 1.273,-1.504 0.184,-0.145 0.387,-0.266 0.613,-0.336 0.336,-0.102 0.559,-0.012 0.735,0.289 0.078,0.136 0.148,0.277 0.23,0.41 0.071,0.121 0.164,0.172 0.254,0.148 0.114,-0.027 0.156,-0.117 0.172,-0.222 0.039,-0.325 0.063,-0.649 -0.039,-0.969 -0.215,-0.68 -0.867,-0.977 -1.504,-0.945 -0.539,0.027 -0.996,0.257 -1.422,0.57 -0.539,0.391 -0.976,0.883 -1.359,1.426 -0.711,1.019 -1.152,2.148 -1.356,3.367 -0.078,0.473 -0.101,0.945 0.032,1.414 0.086,0.301 0.226,0.57 0.468,0.773 0.438,0.364 1.004,0.395 1.532,0.106 0.289,-0.156 0.543,-0.363 0.781,-0.59 0.668,-0.637 1.254,-1.352 1.894,-2.016 0.547,-0.562 1.122,-1.089 1.786,-1.507 0.152,-0.094 0.304,-0.188 0.476,-0.239 0.137,-0.043 0.262,-0.027 0.375,0.071 0.098,0.082 0.192,0.172 0.274,0.269 0.382,0.449 0.714,0.938 1.066,1.41 0.469,0.625 0.965,1.227 1.605,1.688 0.727,0.523 1.528,0.805 2.426,0.805 0.696,0.003 1.324,-0.211 1.918,-0.559 0.789,-0.461 1.461,-1.074 2.117,-1.707 0.664,-0.641 1.305,-1.305 1.961,-1.953 0.192,-0.188 0.336,-0.407 0.45,-0.645 0.128,-0.265 -0.043,-0.535 -0.321,-0.515 z"
         style="fill:#85714d;fill-opacity:1;fill-rule:nonzero;stroke:none"
         id="path48"
         inkscape:connector-curvature="0" /><path
         d="m 56.031,144.516 c -0.261,-0.098 -0.472,-0.004 -0.66,0.168 -0.258,0.238 -0.457,0.527 -0.652,0.812 -0.473,0.695 -0.985,1.359 -1.602,1.934 -0.277,0.254 -0.574,0.488 -0.937,0.613 -0.239,0.078 -0.426,0.019 -0.59,-0.164 -0.203,-0.227 -0.344,-0.488 -0.469,-0.758 -0.328,-0.703 -0.551,-1.445 -0.75,-2.195 -0.324,-1.227 -0.504,-2.485 -0.726,-3.731 -0.145,-0.812 -0.278,-1.625 -0.547,-2.402 -0.121,-0.344 -0.262,-0.676 -0.485,-0.969 -0.547,-0.711 -1.386,-0.82 -2.066,-0.238 -0.301,0.258 -0.539,0.566 -0.754,0.894 -0.656,0.997 -1.141,2.075 -1.555,3.188 -0.55,1.48 -0.918,3.012 -1.25,4.551 -0.14,0.652 -0.3,1.301 -0.511,1.933 -0.075,0.219 -0.153,0.438 -0.297,0.645 -0.168,-0.184 -0.25,-0.395 -0.328,-0.606 -0.293,-0.793 -0.387,-1.621 -0.434,-2.457 -0.016,-0.277 -0.027,-0.554 -0.047,-0.828 -0.016,-0.218 -0.121,-0.386 -0.324,-0.461 -0.215,-0.074 -0.422,-0.043 -0.598,0.117 -0.148,0.137 -0.219,0.313 -0.265,0.5 -0.079,0.297 -0.106,0.602 -0.125,0.907 -0.028,0.386 -0.02,0.777 0.023,1.168 0.07,0.629 0.191,1.246 0.43,1.836 0.179,0.437 0.418,0.839 0.785,1.148 0.535,0.445 1.226,0.52 1.812,0.043 0.246,-0.195 0.422,-0.441 0.563,-0.715 0.387,-0.746 0.586,-1.551 0.769,-2.359 0.243,-1.043 0.434,-2.098 0.727,-3.129 0.41,-1.469 0.941,-2.887 1.711,-4.211 0.133,-0.223 0.262,-0.453 0.453,-0.66 0.106,0.199 0.137,0.402 0.18,0.601 0.179,0.844 0.285,1.704 0.418,2.559 0.164,1.055 0.332,2.113 0.609,3.148 0.231,0.875 0.516,1.731 0.938,2.532 0.246,0.476 0.535,0.922 0.961,1.261 0.562,0.45 1.187,0.625 1.894,0.426 0.504,-0.14 0.922,-0.429 1.297,-0.785 0.605,-0.574 1.117,-1.23 1.59,-1.914 0.351,-0.5 0.683,-1.012 1.027,-1.516 0.051,-0.078 0.094,-0.16 0.113,-0.25 0.071,-0.269 -0.066,-0.535 -0.328,-0.636 z"
         style="fill:#85714d;fill-opacity:1;fill-rule:nonzero;stroke:none"
         id="path50"
         inkscape:connector-curvature="0" /><path
         d="m 69.023,144.742 c -0.066,-0.125 -0.179,-0.176 -0.316,-0.187 -0.027,-0.004 -0.055,0 -0.086,0.004 -0.148,0.019 -0.289,0.054 -0.426,0.121 -0.246,0.117 -0.457,0.281 -0.672,0.449 -1.281,0.996 -2.648,1.863 -4.121,2.547 -1.464,0.683 -2.992,1.109 -4.629,1.054 -0.347,-0.011 -0.695,-0.042 -1.035,-0.117 -0.578,-0.129 -0.984,-0.457 -1.14,-1.047 -0.055,-0.214 -0.09,-0.433 -0.086,-0.652 0.008,-0.418 0.062,-0.832 0.125,-1.246 0.015,-0.106 0.074,-0.125 0.156,-0.137 0.258,-0.035 0.496,-0.121 0.723,-0.242 1.175,-0.621 2.035,-1.547 2.617,-2.734 0.16,-0.321 0.281,-0.653 0.293,-1.016 0.031,-0.973 -0.778,-1.488 -1.504,-1.461 -0.442,0.016 -0.817,0.211 -1.176,0.449 -0.68,0.461 -1.168,1.09 -1.578,1.789 -0.43,0.735 -0.738,1.52 -0.969,2.336 -0.215,0.743 -0.367,1.5 -0.367,2.282 0,0.246 0.004,0.496 0.043,0.742 0.23,1.383 1.129,2.332 2.543,2.605 0.973,0.184 1.949,0.153 2.918,-0.031 1.633,-0.309 3.141,-0.934 4.535,-1.828 1.227,-0.789 2.387,-1.664 3.465,-2.652 0.23,-0.211 0.449,-0.43 0.625,-0.692 0.07,-0.105 0.121,-0.215 0.062,-0.336 z M 57.82,142.594 c 0.196,-0.297 0.426,-0.567 0.703,-0.789 0.192,-0.153 0.266,-0.192 0.446,-0.219 -0.313,1.121 -1.024,1.941 -1.914,2.637 0.179,-0.582 0.425,-1.129 0.765,-1.629 z"
         style="fill:#85714d;fill-opacity:1;fill-rule:nonzero;stroke:none"
         id="path52"
         inkscape:connector-curvature="0" /><path
         d="m 82.172,144.289 c -0.074,-0.047 -0.152,-0.07 -0.238,-0.09 -0.204,-0.039 -0.395,-0.008 -0.586,0.063 -0.633,0.234 -1.27,0.445 -1.891,0.711 -1.047,0.449 -2.055,0.968 -2.98,1.64 -0.805,0.582 -1.61,1.164 -2.418,1.746 -0.188,0.133 -0.133,0.161 -0.352,-0.011 -0.242,-0.196 -0.492,-0.383 -0.742,-0.571 -0.695,-0.515 -1.434,-0.972 -2.153,-1.457 -0.523,-0.355 -0.972,-0.777 -1.312,-1.316 -0.121,-0.195 -0.195,-0.375 -0.047,-0.582 0.027,-0.039 0.035,-0.094 0.051,-0.141 0.269,-0.777 0.5,-1.566 0.57,-2.394 0.028,-0.348 -0.015,-0.676 -0.199,-0.977 -0.211,-0.34 -0.613,-0.535 -1.008,-0.437 -0.297,0.074 -0.523,0.246 -0.703,0.484 -0.418,0.555 -0.562,1.203 -0.609,1.875 -0.047,0.613 0.054,1.215 0.261,1.797 0.414,1.183 1.125,2.144 2.137,2.883 0.668,0.488 1.348,0.968 2.02,1.457 0.222,0.16 0.445,0.324 0.644,0.508 -0.015,0.066 -0.066,0.085 -0.101,0.117 -0.688,0.597 -1.344,1.226 -1.981,1.875 -0.375,0.379 -0.719,0.789 -1.035,1.215 -0.73,0.992 -1.371,2.039 -1.988,3.101 -0.926,1.61 -1.641,3.305 -2.168,5.082 -0.301,1.024 -0.5,2.067 -0.457,3.141 0.023,0.625 0.136,1.226 0.371,1.804 0.461,1.161 1.273,1.942 2.492,2.286 0.734,0.207 1.48,0.226 2.234,0.152 0.836,-0.078 1.633,-0.301 2.414,-0.598 1.844,-0.699 3.454,-1.742 4.704,-3.297 0.789,-0.976 1.375,-2.066 1.707,-3.281 0.285,-1.047 0.414,-2.109 0.347,-3.195 -0.027,-0.512 -0.078,-1.016 -0.176,-1.52 -0.339,-1.722 -1.007,-3.308 -2.039,-4.73 -0.543,-0.75 -1.14,-1.449 -1.824,-2.078 -0.137,-0.125 -0.293,-0.235 -0.41,-0.395 0.063,-0.047 0.113,-0.086 0.164,-0.121 0.582,-0.422 1.168,-0.832 1.742,-1.262 1.293,-0.968 2.731,-1.652 4.239,-2.199 0.308,-0.109 0.613,-0.226 0.914,-0.351 0.187,-0.078 0.343,-0.2 0.48,-0.344 0.195,-0.207 0.164,-0.434 -0.074,-0.59 z m -5.856,9.418 c 0.59,1.137 0.961,2.344 1.09,3.625 0.129,1.309 0.008,2.594 -0.445,3.836 -0.348,0.941 -0.867,1.785 -1.52,2.547 -0.808,0.937 -1.777,1.672 -2.875,2.23 -0.89,0.453 -1.824,0.785 -2.816,0.934 -0.582,0.086 -1.16,0.09 -1.738,-0.047 -0.707,-0.16 -1.227,-0.566 -1.571,-1.199 -0.253,-0.461 -0.386,-0.957 -0.445,-1.481 -0.09,-0.859 0.039,-1.695 0.242,-2.527 0.285,-1.16 0.7,-2.281 1.2,-3.363 0.863,-1.871 1.953,-3.61 3.195,-5.246 0.519,-0.68 1.129,-1.278 1.746,-1.864 0.332,-0.316 0.656,-0.632 1,-0.929 0.023,-0.016 0.047,-0.035 0.074,-0.055 0.395,0.32 0.754,0.676 1.094,1.043 0.699,0.754 1.297,1.582 1.769,2.496 z"
         style="fill:#85714d;fill-opacity:1;fill-rule:nonzero;stroke:none"
         id="path54"
         inkscape:connector-curvature="0" /><path
         d="m 95.504,144.289 c -0.07,-0.047 -0.152,-0.07 -0.238,-0.09 -0.2,-0.039 -0.395,-0.008 -0.586,0.063 -0.629,0.234 -1.27,0.445 -1.891,0.711 -1.047,0.449 -2.055,0.968 -2.98,1.64 -0.801,0.582 -1.61,1.164 -2.414,1.746 -0.188,0.133 -0.137,0.161 -0.352,-0.011 -0.246,-0.196 -0.496,-0.383 -0.746,-0.571 -0.695,-0.515 -1.434,-0.972 -2.149,-1.457 -0.523,-0.355 -0.976,-0.777 -1.316,-1.316 -0.121,-0.195 -0.191,-0.375 -0.047,-0.582 0.031,-0.039 0.039,-0.094 0.055,-0.141 0.269,-0.777 0.496,-1.566 0.566,-2.394 0.032,-0.348 -0.011,-0.676 -0.199,-0.977 -0.211,-0.34 -0.609,-0.535 -1.004,-0.437 -0.297,0.074 -0.527,0.246 -0.707,0.484 -0.418,0.555 -0.558,1.203 -0.609,1.875 -0.043,0.613 0.058,1.215 0.261,1.797 0.418,1.183 1.129,2.144 2.137,2.883 0.672,0.488 1.348,0.968 2.024,1.457 0.222,0.16 0.445,0.324 0.64,0.508 -0.015,0.066 -0.066,0.085 -0.101,0.117 -0.688,0.597 -1.344,1.226 -1.981,1.875 -0.375,0.379 -0.715,0.789 -1.035,1.215 -0.73,0.992 -1.371,2.039 -1.984,3.101 -0.93,1.61 -1.645,3.305 -2.168,5.082 -0.305,1.024 -0.5,2.067 -0.461,3.141 0.027,0.625 0.14,1.226 0.371,1.804 0.465,1.161 1.277,1.942 2.492,2.286 0.734,0.207 1.484,0.226 2.238,0.152 0.832,-0.078 1.633,-0.301 2.41,-0.598 1.844,-0.699 3.454,-1.742 4.704,-3.297 0.789,-0.976 1.375,-2.066 1.707,-3.281 0.285,-1.047 0.414,-2.109 0.351,-3.195 -0.031,-0.512 -0.078,-1.016 -0.18,-1.52 -0.335,-1.722 -1.003,-3.308 -2.039,-4.73 -0.543,-0.75 -1.14,-1.449 -1.824,-2.078 -0.137,-0.125 -0.293,-0.235 -0.406,-0.395 0.059,-0.047 0.109,-0.086 0.16,-0.121 0.582,-0.422 1.172,-0.832 1.746,-1.262 1.289,-0.968 2.727,-1.652 4.235,-2.199 0.308,-0.109 0.613,-0.226 0.914,-0.351 0.191,-0.078 0.343,-0.2 0.48,-0.344 0.195,-0.207 0.168,-0.434 -0.074,-0.59 z m -5.856,9.418 c 0.59,1.137 0.965,2.344 1.09,3.625 0.129,1.309 0.012,2.594 -0.445,3.836 -0.344,0.941 -0.867,1.785 -1.52,2.547 -0.804,0.937 -1.773,1.672 -2.875,2.23 -0.89,0.453 -1.824,0.785 -2.816,0.934 -0.582,0.086 -1.16,0.09 -1.734,-0.047 -0.707,-0.16 -1.227,-0.566 -1.575,-1.199 -0.25,-0.461 -0.386,-0.957 -0.441,-1.481 -0.094,-0.859 0.039,-1.695 0.242,-2.527 0.281,-1.16 0.696,-2.281 1.196,-3.363 0.867,-1.871 1.953,-3.61 3.199,-5.246 0.515,-0.68 1.129,-1.278 1.746,-1.864 0.328,-0.316 0.652,-0.632 1,-0.929 0.019,-0.016 0.043,-0.035 0.07,-0.055 0.395,0.32 0.754,0.676 1.098,1.043 0.695,0.754 1.293,1.582 1.765,2.496 z"
         style="fill:#85714d;fill-opacity:1;fill-rule:nonzero;stroke:none"
         id="path56"
         inkscape:connector-curvature="0" /><path
         d="m 112.066,144.809 c -0.238,0.019 -0.461,0.082 -0.656,0.222 -0.152,0.106 -0.301,0.219 -0.437,0.34 -0.641,0.582 -1.278,1.172 -1.922,1.75 -0.5,0.449 -1.024,0.875 -1.586,1.25 -1.055,0.707 -2.121,0.586 -3.043,-0.121 -0.313,-0.238 -0.578,-0.523 -0.82,-0.832 -0.383,-0.477 -0.704,-0.996 -1.063,-1.492 -0.285,-0.391 -0.566,-0.785 -0.941,-1.094 -0.383,-0.312 -0.813,-0.492 -1.313,-0.469 -0.316,0.016 -0.613,0.106 -0.898,0.246 -0.758,0.375 -1.407,0.907 -2.016,1.481 -0.726,0.683 -1.363,1.449 -2.039,2.18 -0.168,0.179 -0.344,0.351 -0.559,0.507 -0.035,-0.152 -0.003,-0.261 0.008,-0.375 0.098,-0.937 0.379,-1.816 0.848,-2.632 0.328,-0.579 0.742,-1.094 1.269,-1.504 0.188,-0.145 0.387,-0.266 0.614,-0.336 0.336,-0.102 0.562,-0.012 0.738,0.289 0.078,0.136 0.148,0.277 0.227,0.41 0.07,0.121 0.164,0.172 0.257,0.148 0.114,-0.027 0.157,-0.117 0.168,-0.222 0.039,-0.325 0.063,-0.649 -0.039,-0.969 -0.215,-0.68 -0.867,-0.977 -1.5,-0.945 -0.539,0.027 -1,0.257 -1.422,0.57 -0.543,0.391 -0.98,0.883 -1.359,1.426 -0.711,1.019 -1.156,2.148 -1.355,3.367 -0.079,0.473 -0.106,0.945 0.027,1.414 0.086,0.301 0.226,0.57 0.469,0.773 0.437,0.364 1.004,0.395 1.535,0.106 0.289,-0.156 0.539,-0.363 0.777,-0.59 0.668,-0.637 1.258,-1.352 1.899,-2.016 0.543,-0.562 1.117,-1.089 1.785,-1.507 0.148,-0.094 0.301,-0.188 0.472,-0.239 0.137,-0.043 0.266,-0.027 0.379,0.071 0.098,0.082 0.188,0.172 0.274,0.269 0.383,0.449 0.711,0.938 1.062,1.41 0.469,0.625 0.965,1.227 1.61,1.688 0.722,0.523 1.523,0.805 2.422,0.805 0.695,0.003 1.328,-0.211 1.917,-0.559 0.79,-0.461 1.465,-1.074 2.118,-1.707 0.664,-0.641 1.308,-1.305 1.965,-1.953 0.187,-0.188 0.332,-0.407 0.445,-0.645 0.133,-0.265 -0.039,-0.535 -0.317,-0.515 z"
         style="fill:#85714d;fill-opacity:1;fill-rule:nonzero;stroke:none"
         id="path58"
         inkscape:connector-curvature="0" /><path
         d="m 153.414,119.496 c -0.105,-0.101 -0.234,-0.105 -0.359,-0.062 -0.114,0.039 -0.188,0.128 -0.239,0.234 -0.082,0.172 -0.168,0.348 -0.234,0.523 -0.414,1.075 -0.785,2.161 -1.086,3.27 -0.621,2.289 -1.211,4.582 -1.797,6.879 -0.511,2.012 -1.019,4.027 -1.5,6.051 -0.453,1.929 -0.902,3.867 -1.344,5.8 -0.457,2 -0.882,4 -1.296,6.008 -0.457,2.199 -0.907,4.403 -1.336,6.61 -0.387,1.98 -0.746,3.968 -1.118,5.953 -0.339,1.812 -0.71,3.617 -1.164,5.406 -0.175,0.695 -0.367,1.387 -0.675,2.035 -0.106,0.227 -0.231,0.442 -0.411,0.617 -0.16,0.153 -0.332,0.18 -0.527,0.09 -0.117,-0.051 -0.223,-0.125 -0.324,-0.207 -0.27,-0.223 -0.496,-0.484 -0.703,-0.762 -0.61,-0.816 -1.055,-1.718 -1.461,-2.644 -0.649,-1.5 -1.168,-3.047 -1.61,-4.617 -0.57,-2.024 -1.054,-4.063 -1.484,-6.121 -0.414,-1.985 -0.762,-3.981 -1.078,-5.985 -0.156,-0.965 -0.305,-1.929 -0.438,-2.898 -0.148,-1.098 -0.308,-2.188 -0.457,-3.285 -0.082,-0.59 -0.148,-1.18 -0.222,-1.77 -0.094,-0.738 -0.192,-1.476 -0.281,-2.215 -0.079,-0.652 -0.153,-1.308 -0.231,-1.961 -0.094,-0.808 -0.191,-1.617 -0.281,-2.425 -0.067,-0.606 -0.121,-1.215 -0.188,-1.821 -0.09,-0.879 -0.187,-1.758 -0.277,-2.64 -0.09,-0.844 -0.18,-1.688 -0.254,-2.536 -0.09,-0.957 -0.191,-1.918 -0.301,-2.871 -0.097,-0.84 -0.203,-1.675 -0.355,-2.504 -0.043,-0.238 -0.086,-0.476 -0.176,-0.699 -0.07,-0.172 -0.203,-0.242 -0.352,-0.203 -0.152,0.039 -0.238,0.188 -0.214,0.367 0.019,0.133 0.043,0.266 0.054,0.399 0.09,0.937 0.176,1.875 0.258,2.812 0.047,0.551 0.086,1.102 0.129,1.653 0.055,0.757 0.121,1.511 0.168,2.269 0.039,0.649 0.086,1.301 0.125,1.949 0.043,0.68 0.082,1.36 0.133,2.039 0.031,0.438 0.054,0.875 0.082,1.313 0.039,0.652 0.082,1.301 0.129,1.953 0.039,0.535 0.082,1.07 0.129,1.609 0.074,0.852 0.14,1.707 0.218,2.559 0.09,0.945 0.188,1.891 0.289,2.836 0.086,0.766 0.176,1.531 0.258,2.301 0.121,1.07 0.262,2.136 0.41,3.203 0.165,1.148 0.332,2.297 0.532,3.441 0.218,1.274 0.441,2.543 0.715,3.805 0.253,1.164 0.542,2.32 0.855,3.469 0.297,1.105 0.648,2.191 1.02,3.273 0.378,1.113 0.82,2.207 1.335,3.27 0.52,1.066 1.094,2.105 1.832,3.043 0.376,0.476 0.79,0.914 1.309,1.234 0.266,0.16 0.543,0.285 0.883,0.269 0.285,0.02 0.547,-0.085 0.785,-0.273 0.234,-0.184 0.402,-0.418 0.547,-0.672 0.258,-0.449 0.43,-0.929 0.582,-1.418 0.363,-1.137 0.633,-2.297 0.887,-3.461 0.468,-2.117 0.914,-4.242 1.379,-6.359 0.511,-2.32 1.023,-4.641 1.546,-6.957 0.489,-2.149 0.981,-4.301 1.481,-6.449 0.48,-2.055 0.977,-4.114 1.461,-6.168 0.394,-1.649 0.789,-3.297 1.176,-4.946 0.425,-1.839 0.84,-3.679 1.257,-5.519 0.454,-1.977 0.899,-3.953 1.395,-5.922 0.148,-0.59 0.273,-1.188 0.5,-1.758 0.055,-0.14 0.035,-0.293 -0.086,-0.414 z"
         style="fill:#85714d;fill-opacity:1;fill-rule:nonzero;stroke:none"
         id="path60"
         inkscape:connector-curvature="0" /><path
         d="m 163.863,144.23 c -0.297,0.004 -0.57,0.071 -0.789,0.297 -0.344,0.352 -0.66,0.723 -0.992,1.086 -0.613,0.676 -1.219,1.367 -1.867,2.012 -0.578,0.574 -1.207,1.078 -1.906,1.492 -0.461,0.27 -0.926,0.528 -1.446,0.668 -0.828,0.227 -1.554,0.067 -2.156,-0.574 -0.344,-0.363 -0.531,-0.789 -0.59,-1.273 -0.109,-0.856 -0.164,-1.719 -0.172,-2.586 -0.004,-0.071 -0.004,-0.145 0.012,-0.211 0.07,-0.246 0.035,-0.493 0.043,-0.743 0,-0.121 -0.039,-0.238 -0.113,-0.336 -0.125,-0.164 -0.321,-0.191 -0.485,-0.062 -0.109,0.078 -0.168,0.191 -0.214,0.312 -0.075,0.192 -0.122,0.391 -0.137,0.598 -0.051,0.699 -0.129,1.399 -0.117,2.152 0.007,0.247 0.004,0.543 0.023,0.84 0.066,1.004 0.465,1.836 1.242,2.469 0.895,0.731 1.903,0.902 3.004,0.609 0.777,-0.207 1.469,-0.601 2.133,-1.039 0.996,-0.652 1.832,-1.48 2.621,-2.359 0.438,-0.492 0.879,-0.984 1.313,-1.48 0.226,-0.254 0.449,-0.512 0.668,-0.774 0.179,-0.215 0.265,-0.469 0.257,-0.75 -0.007,-0.203 -0.14,-0.348 -0.332,-0.348 z m -10.215,-1.968 c 0.161,0.047 0.297,0 0.399,-0.125 0.105,-0.129 0.121,-0.285 0.027,-0.418 -0.074,-0.11 -0.062,-0.203 -0.019,-0.313 0.043,-0.105 0.093,-0.207 0.16,-0.301 0.097,-0.144 0.191,-0.296 0.265,-0.457 0.172,-0.382 -0.074,-0.75 -0.492,-0.738 -0.277,0.008 -0.48,0.152 -0.652,0.356 -0.234,0.277 -0.266,0.613 -0.274,0.957 -0.007,0.187 0.012,0.371 0.071,0.547 0.086,0.25 0.258,0.418 0.515,0.492 z"
         style="fill:#85714d;fill-opacity:1;fill-rule:nonzero;stroke:none"
         id="path62"
         inkscape:connector-curvature="0" /><path
         d="m 176.031,144.488 c -0.199,-0.011 -0.359,0.067 -0.515,0.168 -0.246,0.156 -0.481,0.332 -0.711,0.512 -0.711,0.555 -1.442,1.086 -2.231,1.527 -1.203,0.676 -2.465,1.219 -3.754,1.707 -0.945,0.36 -1.898,0.676 -2.918,0.75 -0.394,0.028 -0.781,0.024 -1.152,-0.14 -0.273,-0.121 -0.461,-0.321 -0.559,-0.606 -0.144,-0.429 -0.144,-0.867 -0.105,-1.308 0.078,-0.848 0.254,-1.68 0.551,-2.485 0.211,-0.578 0.465,-1.14 0.832,-1.648 0.093,-0.133 0.195,-0.258 0.34,-0.36 0.089,0.114 0.132,0.239 0.148,0.375 0.055,0.497 0.043,0.993 0.008,1.489 -0.012,0.238 0.008,0.465 0.066,0.695 0.031,0.121 0.11,0.199 0.235,0.219 0.121,0.019 0.203,-0.051 0.269,-0.141 0.043,-0.054 0.074,-0.121 0.098,-0.187 0.265,-0.719 0.414,-1.461 0.387,-2.227 -0.012,-0.398 -0.122,-0.777 -0.387,-1.082 -0.293,-0.332 -0.656,-0.492 -1.11,-0.379 -0.211,0.055 -0.394,0.16 -0.562,0.293 -0.309,0.246 -0.543,0.559 -0.754,0.887 -0.703,1.098 -1.156,2.293 -1.414,3.562 -0.145,0.727 -0.227,1.457 -0.129,2.2 0.152,1.144 0.91,1.988 2.035,2.234 0.578,0.125 1.16,0.105 1.739,0.027 0.843,-0.109 1.652,-0.34 2.445,-0.644 1.863,-0.715 3.625,-1.625 5.273,-2.75 0.68,-0.469 1.317,-0.996 1.91,-1.567 0.161,-0.156 0.332,-0.308 0.391,-0.547 0.07,-0.292 -0.125,-0.558 -0.426,-0.574 z"
         style="fill:#85714d;fill-opacity:1;fill-rule:nonzero;stroke:none"
         id="path64"
         inkscape:connector-curvature="0" /><path
         d="m 193.371,127.027 c -0.086,-0.156 -0.215,-0.261 -0.383,-0.32 -0.136,-0.047 -0.277,-0.059 -0.418,-0.062 -0.508,0 -1.008,0.058 -1.508,0.113 -0.906,0.105 -1.816,0.199 -2.722,0.328 -1.18,0.168 -2.356,0.363 -3.535,0.539 -1.004,0.148 -2.004,0.305 -3.008,0.445 -1.027,0.145 -2.055,0.274 -3.082,0.41 -0.399,0.051 -0.801,0.102 -1.203,0.145 -0.137,0.016 -0.157,-0.004 -0.141,-0.129 0.102,-0.844 0.141,-1.691 0.191,-2.539 0.028,-0.477 0.016,-0.953 0.016,-1.43 0,-0.172 -0.016,-0.339 -0.055,-0.507 -0.043,-0.196 -0.179,-0.321 -0.359,-0.34 -0.187,-0.02 -0.348,0.066 -0.437,0.242 -0.051,0.094 -0.079,0.195 -0.098,0.301 -0.184,1.047 -0.301,2.101 -0.426,3.156 -0.055,0.453 -0.109,0.902 -0.16,1.351 -0.008,0.079 -0.043,0.106 -0.121,0.114 -0.211,0.023 -0.422,0.058 -0.629,0.09 -1.137,0.168 -2.273,0.339 -3.414,0.5 -0.883,0.125 -1.77,0.238 -2.656,0.355 -1.012,0.133 -2.024,0.262 -3.035,0.418 -1.141,0.18 -2.282,0.375 -3.399,0.691 -0.367,0.102 -0.734,0.207 -1.078,0.387 -0.113,0.059 -0.219,0.133 -0.289,0.242 -0.129,0.211 0.008,0.465 0.258,0.477 0.086,0.004 0.168,-0.008 0.254,-0.031 0.519,-0.145 1.05,-0.227 1.582,-0.317 0.945,-0.156 1.894,-0.281 2.847,-0.394 0.934,-0.114 1.871,-0.231 2.809,-0.328 1.051,-0.11 2.101,-0.231 3.148,-0.36 0.957,-0.117 1.914,-0.242 2.871,-0.363 0.188,-0.027 0.379,-0.043 0.571,-0.066 0.078,-0.008 0.121,0.015 0.105,0.109 -0.015,0.109 -0.027,0.223 -0.035,0.336 -0.051,0.515 -0.102,1.027 -0.152,1.543 -0.059,0.637 -0.098,1.273 -0.145,1.906 -0.027,0.356 -0.035,0.711 -0.047,1.063 -0.031,0.746 -0.074,1.492 -0.078,2.234 -0.008,1.281 -0.027,2.559 0.016,3.836 0.027,0.816 0.043,1.633 0.09,2.449 0.035,0.606 0.074,1.215 0.129,1.82 0.066,0.778 0.164,1.551 0.304,2.317 0.18,1.008 0.422,2 0.813,2.949 0.281,0.688 0.629,1.332 1.176,1.855 0.73,0.7 1.601,0.997 2.605,0.926 0.723,-0.05 1.402,-0.277 2.062,-0.57 0.665,-0.293 1.293,-0.648 1.915,-1.023 1.011,-0.606 1.933,-1.321 2.722,-2.204 0.965,-1.078 1.934,-2.152 2.84,-3.281 0.266,-0.336 0.539,-0.66 0.824,-0.976 0.172,-0.192 0.262,-0.422 0.266,-0.676 0.004,-0.211 -0.176,-0.367 -0.363,-0.305 -0.215,0.067 -0.43,0.137 -0.614,0.285 -0.32,0.254 -0.597,0.547 -0.863,0.852 -0.484,0.574 -0.98,1.14 -1.488,1.695 -0.434,0.469 -0.871,0.938 -1.301,1.41 -0.43,0.473 -0.879,0.926 -1.391,1.309 -0.929,0.699 -1.937,1.269 -2.984,1.766 -0.504,0.238 -1.027,0.414 -1.582,0.48 -0.633,0.07 -1.199,-0.066 -1.688,-0.492 -0.277,-0.238 -0.48,-0.539 -0.652,-0.86 -0.441,-0.82 -0.687,-1.71 -0.887,-2.613 -0.289,-1.297 -0.41,-2.613 -0.504,-3.937 -0.039,-0.571 -0.066,-1.145 -0.082,-1.719 -0.015,-0.539 -0.023,-1.078 -0.043,-1.617 -0.019,-0.571 -0.003,-1.141 -0.003,-1.957 0.023,-0.453 -0.02,-1.157 0.023,-1.86 0.027,-0.468 0.02,-0.937 0.043,-1.406 0.027,-0.566 0.051,-1.133 0.086,-1.699 0.035,-0.563 0.082,-1.129 0.129,-1.695 0.062,-0.747 0.129,-1.493 0.215,-2.239 0.023,-0.187 0.019,-0.183 0.215,-0.207 0.746,-0.09 1.492,-0.179 2.238,-0.273 1.476,-0.188 2.953,-0.379 4.426,-0.617 1.371,-0.227 2.742,-0.469 4.101,-0.758 1.422,-0.305 2.848,-0.59 4.285,-0.813 0.149,-0.023 0.289,-0.05 0.434,0.035 0.14,0.086 0.301,0.036 0.406,-0.082 0.102,-0.109 0.121,-0.277 0.043,-0.414 z"
         style="fill:#85714d;fill-opacity:1;fill-rule:nonzero;stroke:none"
         id="path66"
         inkscape:connector-curvature="0" /><path
         d="m 204.809,144.379 c -0.192,-0.059 -0.371,-0.008 -0.536,0.07 -0.578,0.27 -1.179,0.461 -1.8,0.582 -0.926,0.188 -1.856,0.348 -2.785,0.504 -0.653,0.11 -1.309,0.16 -1.969,0.176 -0.176,0.004 -0.352,-0.004 -0.524,-0.031 -0.004,-0.024 -0.011,-0.039 -0.007,-0.047 0.007,-0.059 0.019,-0.113 0.035,-0.168 0.273,-1.055 0.425,-2.125 0.414,-3.219 -0.004,-0.93 -0.153,-1.836 -0.481,-2.707 -0.336,-0.894 -0.812,-1.703 -1.551,-2.332 -0.855,-0.727 -1.835,-1.082 -2.968,-0.984 -0.746,0.066 -1.442,0.3 -2.082,0.687 -1.039,0.629 -1.782,1.512 -2.215,2.645 -0.328,0.851 -0.442,1.722 -0.235,2.629 0.196,0.847 0.614,1.562 1.207,2.187 0.258,0.274 0.543,0.524 0.836,0.758 0.051,0.039 0.098,0.07 0.063,0.156 -0.195,0.442 -0.262,0.906 -0.273,1.391 -0.016,0.594 0.054,1.172 0.257,1.734 0.258,0.707 0.715,1.231 1.422,1.524 0.571,0.234 1.16,0.257 1.758,0.148 0.934,-0.168 1.691,-0.633 2.289,-1.367 0.356,-0.438 0.645,-0.914 0.887,-1.422 0.058,-0.117 0.125,-0.156 0.246,-0.145 0.492,0.047 0.98,0 1.469,-0.039 0.726,-0.054 1.449,-0.183 2.164,-0.332 1.011,-0.215 2.023,-0.437 3.008,-0.773 0.492,-0.168 0.964,-0.375 1.398,-0.664 0.098,-0.063 0.187,-0.133 0.25,-0.231 0.184,-0.285 0.047,-0.632 -0.277,-0.73 z m -10.227,3.418 c -0.492,0.687 -1.18,0.976 -2.008,0.941 -0.492,-0.019 -0.879,-0.238 -1.105,-0.703 -0.199,-0.414 -0.285,-0.855 -0.332,-1.308 -0.032,-0.289 -0.016,-0.579 0.023,-0.899 1.231,0.656 2.559,0.887 3.887,1.172 -0.117,0.297 -0.285,0.551 -0.465,0.797 z m 1.086,-2.524 c -0.008,0.02 -0.012,0.039 -0.016,0.063 -0.05,0.191 -0.054,0.199 -0.238,0.16 -1.051,-0.223 -2.09,-0.476 -3.078,-0.914 -0.535,-0.234 -1,-0.59 -1.441,-0.973 -0.313,-0.269 -0.606,-0.562 -0.836,-0.906 -0.454,-0.683 -0.586,-1.43 -0.368,-2.219 0.395,-1.382 1.282,-2.285 2.688,-2.632 0.918,-0.227 1.715,0.039 2.383,0.687 0.593,0.578 0.918,1.309 1.109,2.102 0.133,0.539 0.188,1.086 0.176,1.644 -0.008,1.012 -0.149,2.004 -0.379,2.988 z"
         style="fill:#85714d;fill-opacity:1;fill-rule:nonzero;stroke:none"
         id="path68"
         inkscape:connector-curvature="0" /><path
         d="m 222.07,144.574 c -0.152,-0.09 -0.34,-0.062 -0.465,0.074 -0.046,0.051 -0.089,0.114 -0.121,0.172 -0.218,0.426 -0.476,0.825 -0.699,1.246 -0.394,0.762 -0.812,1.516 -1.211,2.278 -0.558,1.062 -1.082,2.14 -1.613,3.215 -0.465,0.937 -0.945,1.863 -1.418,2.796 -0.359,0.715 -0.699,1.446 -1.074,2.153 -0.559,1.054 -1.27,2.004 -2.031,2.91 -0.2,0.234 -0.395,0.469 -0.645,0.648 -0.254,0.18 -0.328,0.161 -0.414,-0.136 -0.098,-0.336 -0.137,-0.68 -0.149,-1.028 -0.039,-1.039 0.09,-2.066 0.235,-3.093 0.18,-1.286 0.465,-2.551 0.781,-3.809 0.371,-1.488 0.801,-2.961 1.145,-4.453 0.148,-0.649 0.269,-1.305 0.289,-1.957 0,-0.473 -0.063,-0.922 -0.219,-1.356 -0.18,-0.507 -0.473,-0.933 -0.953,-1.207 -0.449,-0.254 -0.934,-0.281 -1.43,-0.215 -0.625,0.083 -1.238,0.231 -1.84,0.438 -0.758,0.262 -1.472,0.633 -2.195,0.977 -0.52,0.246 -1.039,0.492 -1.598,0.64 -0.078,0.02 -0.152,0.028 -0.23,0.031 -0.164,0 -0.258,-0.109 -0.352,-0.218 -0.09,-0.102 0.008,-0.188 0.043,-0.274 0.582,-1.406 1.047,-2.847 1.274,-4.355 0.062,-0.41 0.066,-0.821 -0.098,-1.219 -0.277,-0.684 -1.043,-0.848 -1.582,-0.34 -0.18,0.172 -0.328,0.371 -0.453,0.59 -0.309,0.535 -0.555,1.102 -0.731,1.695 -0.285,0.973 -0.468,1.961 -0.359,2.981 0.07,0.66 0.273,1.273 0.648,1.828 0.348,0.516 0.821,0.84 1.45,0.906 0.371,0.039 0.734,-0.023 1.093,-0.125 0.727,-0.207 1.407,-0.531 2.082,-0.859 0.532,-0.254 1.059,-0.52 1.622,-0.707 0.496,-0.164 1.003,-0.301 1.531,-0.336 0.246,-0.016 0.308,0.027 0.406,0.254 0.094,0.211 0.129,0.433 0.141,0.664 0.011,0.398 -0.043,0.789 -0.118,1.183 -0.187,0.989 -0.468,1.957 -0.714,2.934 -0.485,1.91 -0.989,3.816 -1.239,5.777 -0.093,0.731 -0.156,1.465 -0.187,2.2 -0.027,0.527 0.012,1.05 0.078,1.57 0.066,0.519 0.176,1.023 0.422,1.488 0.226,0.422 0.547,0.746 1.043,0.836 0.375,0.067 0.715,-0.039 1.031,-0.238 0.289,-0.184 0.535,-0.422 0.754,-0.688 0.949,-1.144 1.785,-2.367 2.453,-3.703 0.535,-1.066 1.051,-2.14 1.594,-3.203 0.715,-1.406 1.402,-2.824 2.086,-4.242 0.644,-1.332 1.316,-2.645 1.98,-3.969 0.055,-0.105 0.102,-0.219 0.129,-0.336 0.047,-0.164 -0.031,-0.34 -0.172,-0.418 z"
         style="fill:#85714d;fill-opacity:1;fill-rule:nonzero;stroke:none"
         id="path70"
         inkscape:connector-curvature="0" /><path
         d="m 231.934,144.23 c -0.297,0.004 -0.571,0.071 -0.789,0.297 -0.344,0.352 -0.661,0.723 -0.993,1.086 -0.613,0.676 -1.218,1.367 -1.867,2.012 -0.578,0.574 -1.207,1.078 -1.906,1.492 -0.461,0.27 -0.926,0.528 -1.445,0.668 -0.829,0.227 -1.555,0.067 -2.157,-0.574 -0.343,-0.363 -0.531,-0.789 -0.589,-1.273 -0.11,-0.856 -0.165,-1.719 -0.172,-2.586 -0.004,-0.071 -0.004,-0.145 0.011,-0.211 0.071,-0.246 0.035,-0.493 0.043,-0.743 0,-0.121 -0.039,-0.238 -0.113,-0.336 -0.125,-0.164 -0.32,-0.191 -0.484,-0.062 -0.11,0.078 -0.168,0.191 -0.215,0.312 -0.074,0.192 -0.121,0.391 -0.137,0.598 -0.051,0.699 -0.129,1.399 -0.117,2.152 0.008,0.247 0.004,0.543 0.023,0.84 0.067,1.004 0.465,1.836 1.243,2.469 0.894,0.731 1.902,0.902 3.003,0.609 0.778,-0.207 1.469,-0.601 2.133,-1.039 0.996,-0.652 1.832,-1.48 2.621,-2.359 0.438,-0.492 0.879,-0.984 1.313,-1.48 0.226,-0.254 0.449,-0.512 0.668,-0.774 0.18,-0.215 0.265,-0.469 0.258,-0.75 -0.008,-0.203 -0.141,-0.348 -0.332,-0.348 z m -10.215,-1.968 c 0.16,0.047 0.297,0 0.398,-0.125 0.106,-0.129 0.121,-0.285 0.028,-0.418 -0.075,-0.11 -0.063,-0.203 -0.02,-0.313 0.043,-0.105 0.094,-0.207 0.16,-0.301 0.098,-0.144 0.192,-0.296 0.266,-0.457 0.172,-0.382 -0.074,-0.75 -0.492,-0.738 -0.278,0.008 -0.481,0.152 -0.653,0.356 -0.234,0.277 -0.265,0.613 -0.273,0.957 -0.008,0.187 0.012,0.371 0.07,0.547 0.086,0.25 0.258,0.418 0.516,0.492 z"
         style="fill:#85714d;fill-opacity:1;fill-rule:nonzero;stroke:none"
         id="path72"
         inkscape:connector-curvature="0" /><path
         d="m 248.629,144.809 c -0.242,0.019 -0.461,0.082 -0.656,0.222 -0.153,0.106 -0.301,0.219 -0.438,0.34 -0.64,0.582 -1.277,1.172 -1.922,1.75 -0.5,0.449 -1.023,0.875 -1.586,1.25 -1.054,0.707 -2.125,0.586 -3.043,-0.121 -0.312,-0.238 -0.578,-0.523 -0.824,-0.832 -0.379,-0.477 -0.703,-0.996 -1.058,-1.492 -0.286,-0.391 -0.567,-0.785 -0.946,-1.094 -0.379,-0.312 -0.808,-0.492 -1.308,-0.469 -0.317,0.016 -0.618,0.106 -0.899,0.246 -0.761,0.375 -1.406,0.907 -2.015,1.481 -0.727,0.683 -1.364,1.449 -2.039,2.18 -0.168,0.179 -0.344,0.351 -0.563,0.507 -0.031,-0.152 0,-0.261 0.012,-0.375 0.097,-0.937 0.379,-1.816 0.844,-2.632 0.332,-0.579 0.742,-1.094 1.273,-1.504 0.187,-0.145 0.387,-0.266 0.613,-0.336 0.336,-0.102 0.563,-0.012 0.738,0.289 0.079,0.136 0.149,0.277 0.227,0.41 0.07,0.121 0.164,0.172 0.258,0.148 0.113,-0.027 0.156,-0.117 0.168,-0.222 0.039,-0.325 0.062,-0.649 -0.039,-0.969 -0.215,-0.68 -0.867,-0.977 -1.504,-0.945 -0.535,0.027 -0.996,0.257 -1.422,0.57 -0.539,0.391 -0.977,0.883 -1.355,1.426 -0.711,1.019 -1.157,2.148 -1.36,3.367 -0.078,0.473 -0.101,0.945 0.031,1.414 0.086,0.301 0.227,0.57 0.469,0.773 0.438,0.364 1.004,0.395 1.535,0.106 0.289,-0.156 0.539,-0.363 0.778,-0.59 0.668,-0.637 1.254,-1.352 1.898,-2.016 0.543,-0.562 1.117,-1.089 1.785,-1.507 0.149,-0.094 0.301,-0.188 0.473,-0.239 0.137,-0.043 0.262,-0.027 0.379,0.071 0.097,0.082 0.187,0.172 0.269,0.269 0.383,0.449 0.715,0.938 1.067,1.41 0.469,0.625 0.965,1.227 1.609,1.688 0.723,0.523 1.524,0.805 2.422,0.805 0.695,0.003 1.324,-0.211 1.918,-0.559 0.789,-0.461 1.461,-1.074 2.117,-1.707 0.664,-0.641 1.309,-1.305 1.961,-1.953 0.192,-0.188 0.336,-0.407 0.449,-0.645 0.129,-0.265 -0.043,-0.535 -0.316,-0.515 z"
         style="fill:#85714d;fill-opacity:1;fill-rule:nonzero;stroke:none"
         id="path74"
         inkscape:connector-curvature="0" /><path
         d="m 103.223,76.117 c 33.23,-50.402 58.73,-75.605 76.5,-75.605 2.734,0 4.613,0.726 5.64,2.179 0.168,0.254 0.254,0.493 0.254,0.704 0,0.214 -0.191,0.363 -0.574,0.449 -0.387,0.086 -0.793,0.086 -1.219,0 -0.426,-0.086 -0.769,-0.129 -1.023,-0.129 -4.957,0 -11.106,2.605 -18.453,7.816 -7.348,5.211 -14.672,11.832 -21.977,19.864 -7.305,8.031 -14.5,16.617 -21.594,25.757 C 107.023,74.75 97.84,87.82 93.23,96.363 c -0.343,0.598 -0.664,0.895 -0.96,0.895 -0.301,0 -0.645,-0.106 -1.028,-0.32 -0.383,-0.211 -0.406,-0.661 -0.062,-1.344 3.929,-6.578 6.062,-10.125 6.406,-10.637 -5.211,2.391 -8.801,3.59 -10.766,3.59 -0.254,0 -0.425,-0.086 -0.511,-0.258 8.031,-29.644 12.046,-51.258 12.046,-64.84 0,-3.672 -0.429,-7.195 -1.281,-10.57 C 96.219,9.504 94.938,7.133 93.23,5.766 91.52,4.398 89.77,3.715 87.977,3.715 c -2.907,0 -5.852,1.73 -8.844,5.191 -2.988,3.461 -5.914,8.414 -8.778,14.864 -2.863,6.449 -4.293,13.261 -4.293,20.437 0,1.113 0.043,2.223 0.129,3.332 0.086,1.113 -0.129,1.668 -0.64,1.668 -0.172,-0.086 -0.344,-0.344 -0.512,-0.769 -1.113,-2.137 -1.668,-4.614 -1.668,-7.434 0,-9.738 1.324,-17.129 3.973,-22.168 C 69.992,13.797 73.281,9.738 77.211,6.664 82.766,2.223 87.934,0 92.715,0 c 2.734,0 5.383,0.812 7.945,2.434 6.492,4.187 9.738,13.882 9.738,29.089 0,12.129 -2.39,26.997 -7.175,44.594 z m 69.711,-29.988 c 0.086,0.172 0.125,0.344 0.125,0.516 0,0.167 -0.149,0.21 -0.446,0.125 -0.301,-0.082 -0.492,-0.211 -0.578,-0.383 -0.597,-1.282 -1.41,-1.922 -2.433,-1.922 -3.079,0 -8.586,6.32 -16.532,18.965 -4.953,8.031 -9.097,13.711 -12.429,17.043 -1.707,1.707 -3.715,2.906 -6.024,3.586 -2.305,0.683 -3.972,1.027 -4.996,1.027 -1.027,0 -1.836,-0.129 -2.433,-0.383 1.367,-1.965 2.816,-5.148 4.355,-9.547 1.539,-4.402 2.711,-8.289 3.523,-11.664 0.813,-3.371 1.176,-5.058 1.09,-5.058 l -5.383,5.378 c -2.734,2.821 -5.468,5.297 -8.199,7.434 -1.027,0.856 -1.539,0.813 -1.539,-0.129 0,-0.512 0.235,-0.98 0.703,-1.41 0.473,-0.426 1.305,-1.172 2.5,-2.242 1.196,-1.067 1.989,-1.77 2.371,-2.113 0.383,-0.34 1.11,-1.004 2.18,-1.985 1.066,-0.984 1.856,-1.773 2.371,-2.371 2.391,-2.82 4.141,-5.211 5.254,-7.176 0.426,-1.027 0.617,-2.031 0.574,-3.011 -0.043,-0.985 -0.254,-1.625 -0.64,-1.922 -0.383,-0.301 -0.536,-0.664 -0.45,-1.09 0.086,-1.027 0.813,-1.281 2.18,-0.77 2.988,1.368 4.613,3.332 4.871,5.895 0.254,1.281 0.383,3.055 0.383,5.316 0,2.266 -0.426,5.789 -1.281,10.574 -0.856,4.954 -2.477,9.227 -4.871,12.813 3.843,-2.477 8.265,-8.648 13.265,-18.516 4.996,-9.867 8.903,-16.168 11.723,-18.902 1.195,-1.195 2.691,-1.793 4.484,-1.793 3.16,0 5.254,1.238 6.282,3.715 z"
         style="fill:#85714d;fill-opacity:1;fill-rule:nonzero;stroke:none"
         id="path76"
         inkscape:connector-curvature="0" /></g></g></svg>