<svg width="332" height="81" viewBox="0 0 332 81" fill="none" xmlns="http://www.w3.org/2000/svg">
<path d="M22.3906 70.7783H21.1453L19.5053 79.429L17.5626 70.7783H16.12L14.2186 79.429L12.636 70.7783H11.3066L13.3066 80.617H15.0053L16.8333 72.377L18.6453 80.617H20.3906L22.3906 70.7783Z" fill="#85714D"/>
<path d="M42.1039 70.7783H36.7812V80.617H42.2186V79.5343H38.1359V76.1637H41.4479V75.0756H38.1359V71.8623H41.9479L42.1039 70.7783Z" fill="#85714D"/>
<path d="M57.8694 70.7783H55.8174V80.617H58.1721C60.3027 80.617 62.8027 79.6583 62.8027 75.649C62.8027 71.565 60.3854 70.7783 57.8694 70.7783V70.7783ZM58.1721 71.8623C59.7454 71.8623 61.3601 72.3197 61.3601 75.649C61.3601 78.8877 59.812 79.5436 58.2707 79.5436H57.1721V71.8623H58.1721Z" fill="#85714D"/>
<path d="M79.0466 70.7783H76.9893V80.617H79.3439C81.4733 80.617 83.9733 79.6583 83.9733 75.649C83.9733 71.565 81.5626 70.7783 79.0466 70.7783ZM79.3439 71.8623C80.9173 71.8623 82.5306 72.3197 82.5306 75.649C82.5306 78.8877 80.9893 79.5436 79.4479 79.5436H78.3493V71.8623H79.3439Z" fill="#85714D"/>
<path d="M96.0825 70.7783H97.4425V80.617H96.0825V70.7783Z" fill="#85714D"/>
<path d="M117.536 70.7783H116.266V76.149C116.266 77.3463 116.422 78.9197 116.448 79.149L112.407 70.7783H110.636V80.617H111.907V76.1063C111.907 74.2783 111.792 73.0756 111.724 72.2623L115.719 80.617H117.536V70.7783Z" fill="#85714D"/>
<path d="M136.068 70.6064C133.855 70.6064 131.823 72.3771 131.823 75.6904C131.823 79.0918 133.412 80.7891 135.855 80.7891C137.24 80.7891 138.265 80.4451 139.167 79.9198V75.1638H135.921L136.083 76.2624H137.823V79.2158C137.265 79.5438 136.609 79.6744 135.953 79.6744C134.224 79.6744 133.265 78.5184 133.265 75.6904C133.265 72.7891 134.683 71.7211 136.093 71.7211C136.979 71.7211 137.568 71.9611 138.251 72.5184L139.052 71.6904C138.208 70.9918 137.396 70.6064 136.068 70.6064V70.6064Z" fill="#85714D"/>
<path d="M155.251 70.6064C153.438 70.6064 152.151 71.6638 152.151 73.1744C152.151 74.7064 153.151 75.4344 155.068 76.0184C156.735 76.5344 157.194 76.9611 157.194 77.9198C157.194 79.1011 156.235 79.6744 155.079 79.6744C154.011 79.6744 153.24 79.2891 152.511 78.6744L151.75 79.5184C152.568 80.3198 153.683 80.7891 155.094 80.7891C157.307 80.7891 158.61 79.5918 158.61 77.8771C158.61 75.9918 157.266 75.3771 155.694 74.8878C153.922 74.3464 153.536 73.9451 153.536 73.1171C153.536 72.1744 154.323 71.7211 155.307 71.7211C156.12 71.7211 156.807 71.9771 157.552 72.5758L158.292 71.7478C157.464 71.0078 156.61 70.6064 155.251 70.6064Z" fill="#85714D"/>
<path d="M187.448 70.6064C185.792 70.6064 184.891 71.5758 184.891 72.8198C184.891 73.8051 185.437 74.4611 186.276 75.2784C185.063 76.0491 184.292 76.8771 184.292 78.1171C184.292 79.7478 185.604 80.7891 187.489 80.7891C188.849 80.7891 189.849 80.3198 190.645 79.4451L192.031 80.7891L192.973 80.0184L191.375 78.5184C191.849 77.8051 192.292 76.8771 192.645 75.7064L191.421 75.3464C191.203 76.2731 190.891 77.0918 190.563 77.7624L188.047 75.3878C189.12 74.7624 190.063 74.0024 190.063 72.7784C190.063 71.5344 189.005 70.6064 187.448 70.6064V70.6064ZM187.464 71.5758C188.265 71.5758 188.776 72.0491 188.776 72.8464C188.776 73.6064 188.193 74.1491 187.307 74.6904C186.62 74.0491 186.177 73.5491 186.177 72.8051C186.177 72.1064 186.636 71.5758 187.464 71.5758V71.5758ZM187.036 75.9918L189.891 78.7158C189.251 79.3771 188.547 79.7478 187.636 79.7478C186.464 79.7478 185.636 79.1331 185.636 78.0758C185.636 77.2318 186.093 76.6064 187.036 75.9918V75.9918Z" fill="#85714D"/>
<path d="M224.781 70.7783H219.453V80.617H224.896V79.5343H220.812V76.1637H224.125V75.0756H220.812V71.8623H224.625L224.781 70.7783Z" fill="#85714D"/>
<path d="M244.219 70.7783H242.844L240.375 79.149L237.907 70.7783H236.448L239.62 80.617H241.074L244.219 70.7783Z" fill="#85714D"/>
<path d="M262.24 70.7783H256.912V80.617H262.355V79.5343H258.265V76.1637H261.579V75.0756H258.265V71.8623H262.079L262.24 70.7783Z" fill="#85714D"/>
<path d="M282.812 70.7783H281.541V76.149C281.541 77.3463 281.697 78.9197 281.729 79.149L277.688 70.7783H275.917V80.617H277.188V76.1063C277.188 74.2783 277.073 73.0756 277 72.2623L281 80.617H282.812V70.7783Z" fill="#85714D"/>
<path d="M303.021 70.7783H295.995V71.9343H298.792V80.617H300.151V71.9343H302.88L303.021 70.7783Z" fill="#85714D"/>
<path d="M317.323 70.6064C315.511 70.6064 314.224 71.6638 314.224 73.1744C314.224 74.7064 315.224 75.4344 317.14 76.0184C318.812 76.5344 319.265 76.9611 319.265 77.9198C319.265 79.1011 318.312 79.6744 317.151 79.6744C316.083 79.6744 315.312 79.2891 314.584 78.6744L313.828 79.5184C314.64 80.3198 315.755 80.7891 317.167 80.7891C319.38 80.7891 320.683 79.5918 320.683 77.8771C320.683 75.9918 319.339 75.3771 317.765 74.8878C315.995 74.3464 315.609 73.9451 315.609 73.1171C315.609 72.1744 316.396 71.7211 317.38 71.7211C318.197 71.7211 318.88 71.9771 319.625 72.5758L320.364 71.7478C319.536 71.0078 318.683 70.6064 317.323 70.6064V70.6064Z" fill="#85714D"/>
<path d="M0 54.0547H331.984V54.9613H0V54.0547Z" fill="#85714D"/>
<path d="M31.6973 0.117225C31.5573 -0.0174416 31.3906 -0.0227804 31.224 0.034553C31.0733 0.086553 30.9733 0.205221 30.9066 0.346554C30.7973 0.575888 30.6826 0.810558 30.5933 1.04389C30.0413 2.47722 29.5466 3.92522 29.1453 5.40389C28.3173 8.45589 27.5306 11.5132 26.7493 14.5759C26.0626 17.2586 25.3853 19.9452 24.7493 22.6439C24.14 25.2159 23.5413 27.7999 22.9533 30.3772C22.3493 33.0439 21.776 35.7106 21.224 38.3879C20.62 41.3199 20.016 44.2586 19.4426 47.2012C18.932 49.8412 18.4533 52.4919 17.9586 55.1385C17.5053 57.5545 17.0106 59.9612 16.4066 62.3465C16.172 63.2732 15.9173 64.1959 15.5053 65.0599C15.36 65.3626 15.1973 65.6492 14.9533 65.8826C14.7453 66.0866 14.5106 66.1226 14.2506 66.0026C14.0933 65.9346 13.9586 65.8359 13.8226 65.7266C13.464 65.4292 13.1613 65.0812 12.88 64.7105C12.0733 63.6225 11.4733 62.4199 10.9373 61.1852C10.068 59.1852 9.37998 57.1225 8.78665 55.0292C8.03065 52.3305 7.37998 49.6119 6.80665 46.8679C6.25465 44.2212 5.79731 41.5599 5.36931 38.8879C5.16665 37.6012 4.96931 36.3159 4.79198 35.0239C4.59331 33.5599 4.37998 32.1066 4.17731 30.6439C4.07331 29.8572 3.97865 29.0706 3.87998 28.2839C3.75998 27.2999 3.63065 26.3159 3.51065 25.3306C3.40131 24.4612 3.30265 23.5866 3.20265 22.7159C3.07865 21.6386 2.94798 20.5599 2.82798 19.4826C2.73998 18.6746 2.66131 17.8626 2.57865 17.0546C2.45331 15.8826 2.32798 14.7106 2.20265 13.5346C2.08798 12.4092 1.96931 11.2839 1.86398 10.1532C1.74931 8.87723 1.61465 7.59589 1.46398 6.32522C1.33865 5.20522 1.19731 4.09189 0.994647 2.98656C0.937313 2.66923 0.87998 2.35189 0.754647 2.05455C0.666647 1.82522 0.489313 1.73189 0.29198 1.78389C0.08798 1.83589 -0.0266867 2.03455 0.00531329 2.27322C0.0306466 2.45055 0.0626466 2.62789 0.0786466 2.80522C0.193313 4.05456 0.31198 5.30522 0.421313 6.55455C0.48398 7.28922 0.53598 8.02388 0.58798 8.75855C0.666647 9.76788 0.754647 10.7732 0.817313 11.7839C0.869313 12.6492 0.93198 13.5186 0.98398 14.3826C1.04131 15.2892 1.09331 16.1959 1.15598 17.1012C1.19731 17.6852 1.23465 18.2679 1.27065 18.8519C1.32265 19.7212 1.37998 20.5866 1.44265 21.4559C1.49465 22.1692 1.54665 22.8825 1.61465 23.6012C1.71331 24.7372 1.79731 25.8772 1.90665 27.0132C2.02665 28.2732 2.15065 29.5346 2.29198 30.7946C2.40665 31.8159 2.52131 32.8359 2.63598 33.8625C2.79731 35.2892 2.98398 36.7105 3.18265 38.1332C3.40131 39.6639 3.62531 41.1959 3.88531 42.7212C4.18265 44.4199 4.47865 46.1119 4.84398 47.7945C5.18265 49.3465 5.56798 50.8879 5.98398 52.4199C6.37998 53.8932 6.84931 55.3412 7.33865 56.7839C7.84931 58.2679 8.43731 59.7266 9.12531 61.1439C9.81731 62.5652 10.5786 63.9506 11.5626 65.2012C12.0626 65.8359 12.62 66.4199 13.312 66.8465C13.6613 67.0599 14.036 67.2265 14.484 67.2052C14.8693 67.2319 15.2186 67.0919 15.536 66.8412C15.8493 66.5959 16.0733 66.2839 16.2653 65.9452C16.604 65.3466 16.8386 64.7066 17.0413 64.0546C17.5213 62.5386 17.8853 60.9919 18.224 59.4399C18.8493 56.6172 19.4426 53.7839 20.0626 50.9612C20.74 47.8679 21.4266 44.7732 22.1253 41.6852C22.7706 38.8199 23.432 35.9506 24.0986 33.0866C24.74 30.3466 25.396 27.6012 26.0466 24.8625C26.568 22.6639 27.0986 20.4665 27.6093 18.2679C28.1826 15.8159 28.7346 13.3626 29.292 10.9092C29.8906 8.27322 30.484 5.63855 31.1506 3.01322C31.3493 2.22655 31.516 1.42923 31.8173 0.669227C31.8906 0.48256 31.864 0.278558 31.6973 0.117225V0.117225Z" fill="#85714D"/>
<path d="M54.5411 33.8679C54.2238 33.8932 53.9265 33.9772 53.6665 34.1639C53.4691 34.3052 53.2705 34.4559 53.0878 34.6172C52.2291 35.3932 51.3851 36.1799 50.5265 36.9506C49.8545 37.5492 49.1558 38.1172 48.4065 38.6172C47.0051 39.5599 45.5785 39.3985 44.3491 38.4559C43.9371 38.1385 43.5838 37.7585 43.2545 37.3465C42.7491 36.7105 42.3171 36.0185 41.8385 35.3572C41.4638 34.8359 41.0878 34.3106 40.5838 33.8986C40.0785 33.4826 39.4998 33.2426 38.8331 33.2732C38.4118 33.2946 38.0158 33.4145 37.6398 33.6012C36.6251 34.1012 35.7651 34.8105 34.9478 35.5759C33.9838 36.4865 33.1358 37.5079 32.2345 38.4826C32.0105 38.7212 31.7758 38.9505 31.4838 39.1585C31.4371 38.9559 31.4838 38.8105 31.4998 38.6585C31.6305 37.4092 32.0051 36.2372 32.6251 35.1492C33.0678 34.3772 33.6145 33.6906 34.3225 33.1439C34.5678 32.9506 34.8385 32.7892 35.1398 32.6959C35.5878 32.5599 35.8851 32.6799 36.1198 33.0812C36.2238 33.2625 36.3171 33.4505 36.4265 33.6279C36.5211 33.7892 36.6451 33.8572 36.7651 33.8252C36.9171 33.7892 36.9731 33.6692 36.9945 33.5292C37.0465 33.0959 37.0785 32.6639 36.9425 32.2372C36.6558 31.3305 35.7865 30.9346 34.9371 30.9772C34.2185 31.0132 33.6091 31.3199 33.0411 31.7372C32.3225 32.2585 31.7398 32.9145 31.2291 33.6385C30.2811 34.9972 29.6931 36.5025 29.4211 38.1279C29.3171 38.7585 29.2865 39.3879 29.4638 40.0132C29.5785 40.4145 29.7651 40.7732 30.0878 41.0439C30.6718 41.5292 31.4265 41.5705 32.1305 41.1852C32.5158 40.9772 32.8545 40.7012 33.1718 40.3986C34.0625 39.5492 34.8438 38.5959 35.6971 37.7105C36.4265 36.9612 37.1931 36.2586 38.0785 35.7012C38.2811 35.5759 38.4838 35.4506 38.7131 35.3826C38.8958 35.3252 39.0625 35.3466 39.2131 35.4772C39.3438 35.5866 39.4691 35.7066 39.5785 35.8359C40.0878 36.4346 40.5305 37.0866 40.9998 37.7159C41.6251 38.5492 42.2865 39.3519 43.1398 39.9665C44.1091 40.6639 45.1771 41.0399 46.3745 41.0399C47.3025 41.0439 48.1398 40.7585 48.9318 40.2945C49.9838 39.6799 50.8798 38.8625 51.7545 38.0185C52.6398 37.1639 53.4945 36.2785 54.3691 35.4145C54.6251 35.1639 54.8171 34.8719 54.9691 34.5546C55.1398 34.2012 54.9118 33.8412 54.5411 33.8679V33.8679Z" fill="#85714D"/>
<path d="M74.708 33.4772C74.36 33.3466 74.0787 33.4719 73.828 33.7012C73.484 34.0186 73.2187 34.4039 72.9587 34.7839C72.328 35.7106 71.6453 36.5959 70.8227 37.3626C70.4533 37.7012 70.0573 38.0132 69.5733 38.1799C69.2547 38.2839 69.0053 38.2052 68.7867 37.9612C68.516 37.6586 68.328 37.3106 68.1613 36.9506C67.724 36.0132 67.4267 35.0239 67.1613 34.0239C66.7293 32.3879 66.4893 30.7106 66.1933 29.0492C66 27.9666 65.8227 26.8826 65.464 25.8466C65.3027 25.3879 65.1147 24.9452 64.8173 24.5546C64.088 23.6066 62.9693 23.4612 62.0627 24.2372C61.6613 24.5812 61.344 24.9919 61.0573 25.4292C60.1827 26.7586 59.536 28.1959 58.984 29.6799C58.2507 31.6532 57.76 33.6959 57.3173 35.7479C57.1307 36.6172 56.9173 37.4826 56.636 38.3252C56.536 38.6172 56.432 38.9092 56.24 39.1852C56.016 38.9399 55.9067 38.6586 55.8027 38.3772C55.412 37.3199 55.2867 36.2159 55.224 35.1012C55.2027 34.7319 55.188 34.3626 55.1613 33.9972C55.14 33.7066 55 33.4826 54.7293 33.3826C54.4427 33.2839 54.1667 33.3252 53.932 33.5386C53.7347 33.7212 53.64 33.9559 53.5787 34.2052C53.4733 34.6012 53.4373 35.0079 53.412 35.4146C53.3747 35.9292 53.3853 36.4506 53.4427 36.9719C53.536 37.8106 53.6973 38.6332 54.016 39.4199C54.2547 40.0026 54.5733 40.5386 55.0627 40.9506C55.776 41.5439 56.6973 41.6439 57.4787 41.0079C57.8067 40.7479 58.0413 40.4199 58.2293 40.0546C58.7453 39.0599 59.0107 37.9866 59.2547 36.9092C59.5787 35.5186 59.8333 34.1119 60.224 32.7372C60.7707 30.7786 61.4787 28.8879 62.5053 27.1226C62.6827 26.8252 62.8547 26.5186 63.1093 26.2426C63.2507 26.5079 63.292 26.7786 63.3493 27.0439C63.588 28.1692 63.7293 29.3159 63.9067 30.4559C64.1253 31.8626 64.3493 33.2732 64.7187 34.6532C65.0267 35.8199 65.4067 36.9612 65.9693 38.0292C66.2973 38.6639 66.6827 39.2586 67.2507 39.7106C68 40.3106 68.8333 40.5439 69.776 40.2786C70.448 40.0919 71.0053 39.7066 71.5053 39.2319C72.312 38.4666 72.9947 37.5919 73.6253 36.6799C74.0933 36.0132 74.536 35.3306 74.9947 34.6586C75.0627 34.5546 75.12 34.4452 75.1453 34.3252C75.24 33.9666 75.0573 33.6119 74.708 33.4772V33.4772Z" fill="#85714D"/>
<path d="M92.0307 33.7786C91.9427 33.6119 91.792 33.5439 91.6094 33.5293C91.5734 33.5239 91.536 33.5293 91.4947 33.5346C91.2974 33.5599 91.1094 33.6066 90.9267 33.6959C90.5987 33.8519 90.3174 34.0706 90.0307 34.2946C88.3227 35.6226 86.5 36.7786 84.536 37.6906C82.584 38.6013 80.5467 39.1693 78.364 39.0959C77.9014 39.0813 77.4374 39.0399 76.984 38.9399C76.2134 38.7679 75.672 38.3306 75.464 37.5439C75.3907 37.2586 75.344 36.9666 75.3494 36.6746C75.36 36.1173 75.432 35.5653 75.516 35.0133C75.536 34.8719 75.6147 34.8466 75.724 34.8306C76.068 34.7839 76.3854 34.6693 76.688 34.5079C78.2547 33.6799 79.4014 32.4453 80.1774 30.8626C80.3907 30.4346 80.552 29.9919 80.568 29.5079C80.6094 28.2106 79.5307 27.5239 78.5627 27.5599C77.9734 27.5813 77.4734 27.8413 76.9947 28.1586C76.088 28.7733 75.4374 29.6119 74.8907 30.5439C74.3174 31.5239 73.9067 32.5706 73.5987 33.6586C73.312 34.6493 73.1094 35.6586 73.1094 36.7013C73.1094 37.0293 73.1147 37.3626 73.1667 37.6906C73.4734 39.5346 74.672 40.7999 76.5574 41.1639C77.8547 41.4093 79.156 41.3679 80.448 41.1226C82.6254 40.7106 84.636 39.8773 86.4947 38.6853C88.1307 37.6333 89.6774 36.4666 91.1147 35.1493C91.4214 34.8679 91.7134 34.5759 91.948 34.2266C92.0414 34.0866 92.1094 33.9399 92.0307 33.7786ZM77.0934 30.9146C77.3547 30.5186 77.6614 30.1586 78.0307 29.8626C78.2867 29.6586 78.3854 29.6066 78.6254 29.5706C78.208 31.0653 77.26 32.1586 76.0734 33.0866C76.312 32.3106 76.64 31.5813 77.0934 30.9146V30.9146Z" fill="#85714D"/>
<path d="M109.563 33.1745C109.464 33.1118 109.36 33.0812 109.245 33.0545C108.973 33.0025 108.719 33.0438 108.464 33.1385C107.62 33.4505 106.771 33.7318 105.943 34.0865C104.547 34.6852 103.203 35.3772 101.969 36.2732C100.896 37.0492 99.8227 37.8251 98.7454 38.6011C98.4947 38.7785 98.5681 38.8158 98.2761 38.5865C97.9534 38.3252 97.6201 38.0758 97.2867 37.8251C96.3601 37.1385 95.3747 36.5292 94.4161 35.8825C93.7187 35.4092 93.1201 34.8465 92.6667 34.1278C92.5054 33.8678 92.4067 33.6278 92.6041 33.3518C92.6401 33.2998 92.6507 33.2265 92.6721 33.1638C93.0307 32.1278 93.3387 31.0758 93.4321 29.9718C93.4694 29.5078 93.4121 29.0705 93.1667 28.6692C92.8854 28.2158 92.3494 27.9558 91.8227 28.0865C91.4267 28.1852 91.1254 28.4145 90.8854 28.7318C90.3281 29.4718 90.1361 30.3358 90.0734 31.2318C90.0107 32.0492 90.1454 32.8518 90.4214 33.6278C90.9734 35.2052 91.9214 36.4865 93.2707 37.4718C94.1614 38.1225 95.0681 38.7625 95.9641 39.4145C96.2601 39.6278 96.5574 39.8465 96.8227 40.0918C96.8027 40.1798 96.7347 40.2051 96.6881 40.2478C95.7707 41.0438 94.8961 41.8825 94.0467 42.7478C93.5467 43.2531 93.0881 43.7998 92.6667 44.3678C91.6934 45.6905 90.8387 47.0865 90.0161 48.5025C88.7814 50.6492 87.8281 52.9092 87.1254 55.2785C86.7241 56.6438 86.4587 58.0345 86.5161 59.4665C86.5467 60.2998 86.6974 61.1011 87.0107 61.8718C87.6254 63.4198 88.7081 64.4612 90.3334 64.9198C91.3121 65.1958 92.3067 65.2212 93.3121 65.1225C94.4267 65.0185 95.4894 64.7211 96.5307 64.3251C98.9894 63.3931 101.136 62.0025 102.803 59.9291C103.855 58.6278 104.636 57.1745 105.079 55.5545C105.459 54.1585 105.631 52.7425 105.541 51.2945C105.505 50.6118 105.437 49.9398 105.307 49.2678C104.855 46.9718 103.964 44.8572 102.588 42.9612C101.864 41.9612 101.068 41.0291 100.156 40.1905C99.9734 40.0238 99.7654 39.8772 99.6094 39.6638C99.6934 39.6012 99.7601 39.5492 99.8281 39.5025C100.604 38.9398 101.385 38.3931 102.151 37.8198C103.875 36.5291 105.792 35.6172 107.803 34.8878C108.213 34.7425 108.62 34.5865 109.021 34.4198C109.271 34.3158 109.479 34.1532 109.661 33.9612C109.921 33.6852 109.88 33.3825 109.563 33.1745V33.1745ZM101.755 45.7318C102.541 47.2478 103.036 48.8572 103.208 50.5652C103.38 52.3105 103.219 54.0238 102.615 55.6798C102.151 56.9345 101.459 58.0598 100.588 59.0758C99.5107 60.3251 98.2187 61.3052 96.7547 62.0492C95.5681 62.6532 94.3227 63.0958 93.0001 63.2945C92.2241 63.4092 91.4534 63.4145 90.6827 63.2318C89.7401 63.0185 89.0467 62.4771 88.5881 61.6331C88.2507 61.0185 88.0734 60.3571 87.9947 59.6585C87.8747 58.5131 88.0467 57.3985 88.3174 56.2892C88.6974 54.7425 89.2507 53.2478 89.9174 51.8051C91.0681 49.3105 92.5214 46.9918 94.1774 44.8105C94.8694 43.9038 95.6827 43.1065 96.5054 42.3251C96.9481 41.9038 97.3801 41.4825 97.8387 41.0865C97.8694 41.0652 97.9014 41.0398 97.9374 41.0132C98.4641 41.4398 98.9427 41.9145 99.3961 42.4038C100.328 43.4092 101.125 44.5132 101.755 45.7318V45.7318Z" fill="#85714D"/>
<path d="M127.338 33.1745C127.245 33.1118 127.136 33.0812 127.021 33.0545C126.754 33.0025 126.494 33.0438 126.24 33.1385C125.401 33.4505 124.546 33.7318 123.718 34.0865C122.322 34.6852 120.978 35.3772 119.745 36.2732C118.677 37.0492 117.598 37.8251 116.526 38.6011C116.276 38.7785 116.344 38.8158 116.057 38.5865C115.729 38.3252 115.396 38.0758 115.062 37.8251C114.136 37.1385 113.15 36.5292 112.197 35.8825C111.5 35.4092 110.896 34.8465 110.442 34.1278C110.281 33.8678 110.188 33.6278 110.38 33.3518C110.421 33.2998 110.432 33.2265 110.453 33.1638C110.812 32.1278 111.114 31.0758 111.208 29.9718C111.25 29.5078 111.193 29.0705 110.942 28.6692C110.661 28.2158 110.13 27.9558 109.604 28.0865C109.208 28.1852 108.901 28.4145 108.661 28.7318C108.104 29.4718 107.917 30.3358 107.849 31.2318C107.792 32.0492 107.926 32.8518 108.197 33.6278C108.754 35.2052 109.702 36.4865 111.046 37.4718C111.942 38.1225 112.844 38.7625 113.745 39.4145C114.041 39.6278 114.338 39.8465 114.598 40.0918C114.578 40.1798 114.51 40.2051 114.464 40.2478C113.546 41.0438 112.672 41.8825 111.822 42.7478C111.322 43.2531 110.869 43.7998 110.442 44.3678C109.469 45.6905 108.614 47.0865 107.797 48.5025C106.557 50.6492 105.604 52.9092 104.906 55.2785C104.5 56.6438 104.24 58.0345 104.292 59.4665C104.328 60.2998 104.478 61.1011 104.786 61.8718C105.406 63.4198 106.489 64.4612 108.109 64.9198C109.088 65.1958 110.088 65.2212 111.093 65.1225C112.202 65.0185 113.27 64.7211 114.306 64.3251C116.765 63.3931 118.912 62.0025 120.578 59.9291C121.63 58.6278 122.412 57.1745 122.854 55.5545C123.234 54.1585 123.406 52.7425 123.322 51.2945C123.281 50.6118 123.218 49.9398 123.082 49.2678C122.636 46.9718 121.745 44.8572 120.364 42.9612C119.64 41.9612 118.844 41.0291 117.932 40.1905C117.749 40.0238 117.541 39.8772 117.39 39.6638C117.469 39.6012 117.536 39.5492 117.604 39.5025C118.38 38.9398 119.166 38.3931 119.932 37.8198C121.65 36.5291 123.568 35.6172 125.578 34.8878C125.989 34.7425 126.396 34.5865 126.797 34.4198C127.052 34.3158 127.254 34.1532 127.437 33.9612C127.697 33.6852 127.661 33.3825 127.338 33.1745V33.1745ZM119.53 45.7318C120.317 47.2478 120.817 48.8572 120.984 50.5652C121.156 52.3105 121 54.0238 120.39 55.6798C119.932 56.9345 119.234 58.0598 118.364 59.0758C117.292 60.3251 116 61.3052 114.53 62.0492C113.344 62.6532 112.098 63.0958 110.776 63.2945C110 63.4092 109.229 63.4145 108.464 63.2318C107.521 63.0185 106.828 62.4771 106.364 61.6331C106.03 61.0185 105.849 60.3571 105.776 59.6585C105.65 58.5131 105.828 57.3985 106.098 56.2892C106.473 54.7425 107.026 53.2478 107.693 51.8051C108.849 49.3105 110.297 46.9918 111.958 44.8105C112.645 43.9038 113.464 43.1065 114.286 42.3251C114.724 41.9038 115.156 41.4825 115.62 41.0865C115.645 41.0652 115.677 41.0398 115.713 41.0132C116.24 41.4398 116.718 41.9145 117.177 42.4038C118.104 43.4092 118.901 44.5132 119.53 45.7318Z" fill="#85714D"/>
<path d="M149.422 33.8679C149.104 33.8932 148.807 33.9772 148.547 34.1639C148.344 34.3052 148.146 34.4559 147.964 34.6172C147.11 35.3932 146.26 36.1799 145.402 36.9506C144.735 37.5492 144.036 38.1172 143.287 38.6172C141.88 39.5599 140.459 39.3985 139.23 38.4559C138.812 38.1385 138.459 37.7585 138.136 37.3465C137.626 36.7105 137.198 36.0185 136.719 35.3572C136.339 34.8359 135.964 34.3106 135.464 33.8986C134.954 33.4826 134.38 33.2426 133.714 33.2732C133.292 33.2946 132.896 33.4145 132.516 33.6012C131.506 34.1012 130.64 34.8105 129.828 35.5759C128.86 36.4865 128.011 37.5079 127.11 38.4826C126.886 38.7212 126.651 38.9505 126.364 39.1585C126.318 38.9559 126.36 38.8105 126.375 38.6585C126.506 37.4092 126.88 36.2372 127.506 35.1492C127.943 34.3772 128.495 33.6906 129.198 33.1439C129.448 32.9506 129.714 32.7892 130.016 32.6959C130.464 32.5599 130.766 32.6799 131 33.0812C131.104 33.2625 131.198 33.4505 131.303 33.6279C131.396 33.7892 131.522 33.8572 131.646 33.8252C131.798 33.7892 131.855 33.6692 131.87 33.5292C131.922 33.0959 131.954 32.6639 131.818 32.2372C131.531 31.3305 130.662 30.9346 129.818 30.9772C129.099 31.0132 128.484 31.3199 127.922 31.7372C127.198 32.2585 126.615 32.9145 126.11 33.6385C125.162 34.9972 124.568 36.5025 124.303 38.1279C124.198 38.7585 124.162 39.3879 124.339 40.0132C124.454 40.4145 124.64 40.7732 124.964 41.0439C125.547 41.5292 126.303 41.5705 127.011 41.1852C127.396 40.9772 127.73 40.7012 128.047 40.3986C128.938 39.5492 129.724 38.5959 130.579 37.7105C131.303 36.9612 132.068 36.2586 132.959 35.7012C133.156 35.5759 133.36 35.4506 133.588 35.3826C133.771 35.3252 133.943 35.3466 134.094 35.4772C134.224 35.5866 134.344 35.7066 134.459 35.8359C134.97 36.4346 135.407 37.0866 135.875 37.7159C136.5 38.5492 137.162 39.3519 138.022 39.9665C138.984 40.6639 140.052 41.0399 141.251 41.0399C142.178 41.0439 143.022 40.7585 143.807 40.2945C144.86 39.6799 145.76 38.8625 146.631 38.0185C147.516 37.1639 148.375 36.2785 149.251 35.4145C149.5 35.1639 149.694 34.8719 149.844 34.5546C150.022 34.2012 149.792 33.8412 149.422 33.8679V33.8679Z" fill="#85714D"/>
<path d="M204.552 0.117225C204.412 -0.0174416 204.24 -0.0227804 204.074 0.034553C203.922 0.086553 203.823 0.205221 203.755 0.346554C203.646 0.575888 203.531 0.810558 203.443 1.04389C202.891 2.47722 202.396 3.92522 201.995 5.40389C201.167 8.45589 200.38 11.5132 199.599 14.5759C198.918 17.2586 198.24 19.9452 197.599 22.6439C196.995 25.2159 196.396 27.7999 195.807 30.3772C195.198 33.0439 194.631 35.7106 194.079 38.3879C193.47 41.3199 192.87 44.2586 192.298 47.2012C191.782 49.8412 191.303 52.4919 190.807 55.1385C190.355 57.5545 189.86 59.9612 189.255 62.3465C189.022 63.2732 188.766 64.1959 188.355 65.0599C188.214 65.3626 188.047 65.6492 187.807 65.8826C187.594 66.0866 187.364 66.1226 187.104 66.0026C186.948 65.9346 186.807 65.8359 186.672 65.7266C186.312 65.4292 186.011 65.0812 185.735 64.7105C184.922 63.6225 184.328 62.4199 183.787 61.1852C182.922 59.1852 182.23 57.1225 181.64 55.0292C180.88 52.3305 180.235 49.6119 179.662 46.8679C179.11 44.2212 178.646 41.5599 178.224 38.8879C178.016 37.6012 177.818 36.3159 177.64 35.0239C177.443 33.5599 177.23 32.1066 177.031 30.6439C176.922 29.8572 176.834 29.0706 176.735 28.2839C176.61 27.2999 176.479 26.3159 176.36 25.3306C176.255 24.4612 176.156 23.5866 176.052 22.7159C175.927 21.6386 175.798 20.5599 175.678 19.4826C175.588 18.6746 175.516 17.8626 175.427 17.0546C175.307 15.8826 175.178 14.7106 175.058 13.5346C174.938 12.4092 174.818 11.2839 174.719 10.1532C174.599 8.87723 174.464 7.59589 174.318 6.32522C174.188 5.20522 174.047 4.09189 173.844 2.98656C173.787 2.66923 173.73 2.35189 173.61 2.05455C173.516 1.82522 173.339 1.73189 173.14 1.78389C172.938 1.83589 172.823 2.03455 172.855 2.27322C172.88 2.45055 172.912 2.62789 172.927 2.80522C173.047 4.05456 173.162 5.30522 173.271 6.55455C173.334 7.28922 173.386 8.02388 173.443 8.75855C173.516 9.76788 173.604 10.7732 173.667 11.7839C173.719 12.6492 173.782 13.5186 173.834 14.3826C173.891 15.2892 173.943 16.1959 174.011 17.1012C174.052 17.6852 174.083 18.2679 174.12 18.8519C174.172 19.7212 174.23 20.5866 174.292 21.4559C174.344 22.1692 174.402 22.8825 174.464 23.6012C174.563 24.7372 174.651 25.8772 174.755 27.0132C174.875 28.2732 175.006 29.5346 175.14 30.7946C175.255 31.8159 175.375 32.8359 175.484 33.8625C175.646 35.2892 175.834 36.7105 176.031 38.1332C176.251 39.6639 176.474 41.1959 176.74 42.7212C177.031 44.4199 177.328 46.1119 177.694 47.7945C178.031 49.3465 178.416 50.8879 178.834 52.4199C179.23 53.8932 179.698 55.3412 180.194 56.7839C180.698 58.2679 181.287 59.7266 181.974 61.1439C182.667 62.5652 183.432 63.9506 184.416 65.2012C184.918 65.8359 185.47 66.4199 186.162 66.8465C186.516 67.0599 186.886 67.2265 187.339 67.2052C187.719 67.2319 188.068 67.0919 188.386 66.8412C188.698 66.5959 188.922 66.2839 189.115 65.9452C189.459 65.3466 189.688 64.7066 189.891 64.0546C190.375 62.5386 190.735 60.9919 191.074 59.4399C191.698 56.6172 192.292 53.7839 192.912 50.9612C193.594 47.8679 194.276 44.7732 194.974 41.6852C195.626 38.8199 196.282 35.9506 196.948 33.0866C197.588 30.3466 198.251 27.6012 198.896 24.8625C199.422 22.6639 199.948 20.4665 200.464 18.2679C201.031 15.8159 201.584 13.3626 202.14 10.9092C202.746 8.27322 203.339 5.63855 204 3.01322C204.198 2.22655 204.364 1.42923 204.667 0.669227C204.74 0.48256 204.714 0.278558 204.552 0.117225V0.117225Z" fill="#85714D"/>
<path d="M218.484 33.0958C218.088 33.1012 217.724 33.1905 217.432 33.4918C216.973 33.9611 216.552 34.4558 216.109 34.9398C215.292 35.8412 214.484 36.7625 213.62 37.6225C212.849 38.3878 212.01 39.0598 211.078 39.6118C210.464 39.9718 209.844 40.3158 209.15 40.5025C208.046 40.8052 207.078 40.5918 206.276 39.7372C205.817 39.2532 205.568 38.6852 205.489 38.0398C205.344 36.8985 205.27 35.7478 205.26 34.5918C205.254 34.4972 205.254 34.3985 205.276 34.3105C205.369 33.9825 205.322 33.6532 205.333 33.3198C205.333 33.1585 205.281 33.0025 205.182 32.8718C205.016 32.6532 204.754 32.6172 204.536 32.7892C204.39 32.8932 204.312 33.0438 204.25 33.2052C204.15 33.4612 204.088 33.7265 204.068 34.0025C204 34.9345 203.896 35.8678 203.912 36.8718C203.921 37.2012 203.917 37.5958 203.942 37.9918C204.03 39.3305 204.562 40.4398 205.598 41.2838C206.792 42.2585 208.136 42.4865 209.604 42.0958C210.64 41.8198 211.562 41.2945 212.448 40.7105C213.776 39.8412 214.89 38.7372 215.942 37.5652C216.526 36.9092 217.114 36.2532 217.693 35.5918C217.994 35.2532 218.292 34.9092 218.584 34.5598C218.822 34.2732 218.937 33.9345 218.926 33.5598C218.917 33.2892 218.74 33.0958 218.484 33.0958V33.0958ZM204.864 30.4718C205.078 30.5345 205.26 30.4718 205.396 30.3051C205.536 30.1331 205.557 29.9252 205.432 29.7478C205.333 29.6012 205.349 29.4772 205.406 29.3305C205.464 29.1905 205.53 29.0545 205.62 28.9292C205.749 28.7372 205.874 28.5345 205.973 28.3198C206.202 27.8105 205.874 27.3198 205.317 27.3358C204.948 27.3465 204.677 27.5385 204.448 27.8105C204.136 28.1798 204.093 28.6278 204.082 29.0865C204.073 29.3358 204.098 29.5812 204.177 29.8158C204.292 30.1492 204.521 30.3731 204.864 30.4718V30.4718Z" fill="#85714D"/>
<path d="M234.708 33.4398C234.442 33.4252 234.229 33.5292 234.021 33.6638C233.693 33.8718 233.38 34.1065 233.073 34.3465C232.125 35.0865 231.15 35.7945 230.098 36.3825C228.494 37.2838 226.812 38.0078 225.093 38.6585C223.833 39.1385 222.562 39.5598 221.202 39.6585C220.677 39.6958 220.161 39.6905 219.666 39.4718C219.302 39.3105 219.052 39.0438 218.921 38.6638C218.729 38.0918 218.729 37.5078 218.781 36.9198C218.885 35.7892 219.12 34.6798 219.516 33.6065C219.797 32.8358 220.136 32.0865 220.625 31.4092C220.749 31.2318 220.885 31.0652 221.078 30.9292C221.197 31.0812 221.254 31.2478 221.276 31.4292C221.349 32.0918 221.333 32.7532 221.286 33.4145C221.27 33.7318 221.297 34.0345 221.374 34.3412C221.416 34.5025 221.521 34.6065 221.688 34.6332C221.849 34.6585 221.958 34.5652 222.046 34.4452C222.104 34.3732 222.145 34.2838 222.177 34.1958C222.53 33.2372 222.729 32.2478 222.693 31.2265C222.677 30.6958 222.53 30.1905 222.177 29.7838C221.786 29.3412 221.302 29.1278 220.697 29.2785C220.416 29.3518 220.172 29.4918 219.948 29.6692C219.536 29.9972 219.224 30.4145 218.942 30.8518C218.005 32.3158 217.401 33.9092 217.057 35.6012C216.864 36.5705 216.754 37.5438 216.885 38.5345C217.088 40.0598 218.098 41.1852 219.598 41.5132C220.369 41.6798 221.145 41.6532 221.917 41.5492C223.041 41.4038 224.12 41.0958 225.177 40.6905C227.661 39.7372 230.01 38.5238 232.208 37.0238C233.114 36.3985 233.964 35.6958 234.754 34.9345C234.969 34.7265 235.197 34.5238 235.276 34.2052C235.369 33.8158 235.109 33.4612 234.708 33.4398V33.4398Z" fill="#85714D"/>
<path d="M257.828 10.1584C257.713 9.95035 257.541 9.81035 257.317 9.73169C257.136 9.66902 256.948 9.65301 256.76 9.64901C256.083 9.64901 255.416 9.72636 254.749 9.79969C253.541 9.93969 252.328 10.065 251.12 10.237C249.547 10.461 247.979 10.721 246.407 10.9557C245.068 11.153 243.735 11.3624 242.396 11.549C241.027 11.7424 239.656 11.9143 238.287 12.0957C237.755 12.1637 237.219 12.2317 236.683 12.289C236.5 12.3104 236.473 12.2837 236.495 12.117C236.631 10.9917 236.683 9.86235 236.749 8.73169C236.787 8.09569 236.771 7.46102 236.771 6.82502C236.771 6.59569 236.749 6.37301 236.697 6.14901C236.64 5.88768 236.459 5.72102 236.219 5.69569C235.969 5.66902 235.755 5.78368 235.636 6.01835C235.568 6.14368 235.531 6.27835 235.505 6.41969C235.26 7.81569 235.104 9.22102 234.937 10.6277C234.864 11.2317 234.792 11.8303 234.724 12.429C234.713 12.5343 234.667 12.5703 234.563 12.581C234.281 12.6117 234 12.6584 233.724 12.701C232.208 12.925 230.693 13.153 229.172 13.3677C227.995 13.5344 226.812 13.685 225.631 13.841C224.281 14.0184 222.932 14.1904 221.584 14.3984C220.063 14.6384 218.541 14.8983 217.052 15.3197C216.563 15.4557 216.073 15.5957 215.615 15.8357C215.464 15.9144 215.323 16.013 215.229 16.1583C215.057 16.4397 215.24 16.7783 215.573 16.7943C215.688 16.7997 215.797 16.7837 215.912 16.753C216.604 16.5597 217.312 16.4504 218.021 16.3304C219.281 16.1224 220.547 15.9557 221.817 15.805C223.063 15.653 224.312 15.497 225.563 15.3677C226.964 15.221 228.364 15.0597 229.76 14.8877C231.036 14.7317 232.312 14.565 233.588 14.4037C233.839 14.3677 234.093 14.3464 234.349 14.3157C234.453 14.305 234.511 14.3357 234.489 14.461C234.469 14.6063 234.453 14.7583 234.443 14.909C234.375 15.5957 234.307 16.2783 234.24 16.9663C234.161 17.8157 234.109 18.6637 234.047 19.5077C234.011 19.9824 234 20.4557 233.984 20.925C233.943 21.9197 233.885 22.9143 233.88 23.9037C233.869 25.6117 233.844 27.3157 233.901 29.0183C233.937 30.1063 233.959 31.1957 234.021 32.2837C234.068 33.0917 234.12 33.9037 234.193 34.7103C234.281 35.7477 234.412 36.7783 234.599 37.7997C234.839 39.1437 235.161 40.4664 235.683 41.7317C236.057 42.649 236.521 43.5077 237.251 44.205C238.224 45.1383 239.385 45.5344 240.724 45.4397C241.688 45.373 242.593 45.0703 243.473 44.6797C244.36 44.289 245.197 43.8157 246.027 43.3157C247.375 42.5077 248.604 41.5543 249.656 40.377C250.943 38.9397 252.235 37.5077 253.443 36.0024C253.797 35.5544 254.161 35.1224 254.541 34.701C254.771 34.445 254.891 34.1383 254.896 33.7997C254.901 33.5183 254.661 33.3104 254.412 33.393C254.125 33.4824 253.839 33.5757 253.593 33.773C253.167 34.1117 252.797 34.5023 252.443 34.909C251.797 35.6743 251.136 36.429 250.459 37.169C249.88 37.7944 249.297 38.4197 248.724 39.049C248.151 39.6797 247.552 40.2837 246.869 40.7943C245.631 41.7263 244.287 42.4864 242.891 43.149C242.219 43.4664 241.521 43.701 240.781 43.789C239.937 43.8824 239.183 43.701 238.531 43.133C238.161 42.8157 237.891 42.4143 237.661 41.9863C237.073 40.893 236.745 39.7064 236.479 38.5024C236.093 36.773 235.932 35.0184 235.807 33.253C235.755 32.4917 235.719 31.7263 235.697 30.961C235.677 30.2423 235.667 29.5237 235.64 28.805C235.615 28.0437 235.636 27.2837 235.636 26.1957C235.667 25.5917 235.609 24.653 235.667 23.7157C235.703 23.0917 235.693 22.4664 235.724 21.841C235.76 21.0864 235.792 20.3303 235.839 19.5757C235.885 18.825 235.948 18.0704 236.011 17.3157C236.093 16.3197 236.183 15.325 236.297 14.3304C236.328 14.081 236.323 14.0864 236.584 14.0544C237.579 13.9344 238.573 13.8157 239.568 13.6903C241.536 13.4397 243.505 13.185 245.469 12.8677C247.297 12.565 249.125 12.2423 250.937 11.857C252.833 11.4503 254.735 11.0704 256.651 10.773C256.849 10.7424 257.036 10.7064 257.229 10.8197C257.416 10.9344 257.631 10.8677 257.771 10.7104C257.907 10.565 257.932 10.341 257.828 10.1584V10.1584Z" fill="#85714D"/>
<path d="M273.079 33.2944C272.823 33.2158 272.584 33.2838 272.364 33.3878C271.593 33.7478 270.792 34.0024 269.964 34.1638C268.729 34.4144 267.489 34.6278 266.251 34.8358C265.38 34.9824 264.505 35.0491 263.625 35.0704C263.391 35.0758 263.156 35.0651 262.927 35.0291C262.921 34.9971 262.912 34.9771 262.917 34.9664C262.927 34.8878 262.943 34.8158 262.964 34.7424C263.328 33.3358 263.531 31.9091 263.516 30.4504C263.511 29.2104 263.312 28.0024 262.875 26.8411C262.427 25.6491 261.792 24.5704 260.807 23.7318C259.667 22.7624 258.36 22.2891 256.849 22.4198C255.855 22.5078 254.927 22.8198 254.073 23.3358C252.688 24.1744 251.697 25.3518 251.12 26.8624C250.683 27.9971 250.531 29.1584 250.807 30.3678C251.068 31.4971 251.625 32.4504 252.416 33.2838C252.76 33.6491 253.14 33.9824 253.531 34.2944C253.599 34.3464 253.661 34.3878 253.615 34.5024C253.355 35.0918 253.265 35.7104 253.251 36.3571C253.229 37.1491 253.323 37.9198 253.593 38.6691C253.937 39.6118 254.547 40.3104 255.489 40.7011C256.251 41.0131 257.036 41.0438 257.833 40.8984C259.079 40.6744 260.088 40.0544 260.885 39.0758C261.36 38.4918 261.745 37.8571 262.068 37.1798C262.145 37.0238 262.235 36.9718 262.396 36.9864C263.052 37.0491 263.703 36.9864 264.355 36.9344C265.323 36.8624 266.287 36.6904 267.24 36.4918C268.588 36.2051 269.937 35.9091 271.251 35.4611C271.907 35.2371 272.536 34.9611 273.115 34.5758C273.245 34.4918 273.364 34.3984 273.448 34.2678C273.693 33.8878 273.511 33.4251 273.079 33.2944V33.2944ZM259.443 37.8518C258.787 38.7678 257.869 39.1531 256.765 39.1064C256.109 39.0811 255.593 38.7891 255.292 38.1691C255.027 37.6171 254.912 37.0291 254.849 36.4251C254.807 36.0398 254.828 35.6531 254.88 35.2264C256.521 36.1011 258.292 36.4091 260.063 36.7891C259.907 37.1851 259.683 37.5238 259.443 37.8518ZM260.891 34.4864C260.88 34.5131 260.875 34.5384 260.869 34.5704C260.803 34.8251 260.797 34.8358 260.552 34.7838C259.151 34.4864 257.765 34.1491 256.448 33.5651C255.735 33.2531 255.115 32.7784 254.527 32.2678C254.109 31.9091 253.719 31.5184 253.412 31.0598C252.807 30.1491 252.631 29.1531 252.921 28.1011C253.448 26.2584 254.631 25.0544 256.505 24.5918C257.729 24.2891 258.792 24.6438 259.683 25.5078C260.473 26.2784 260.907 27.2531 261.161 28.3104C261.339 29.0291 261.412 29.7584 261.396 30.5024C261.385 31.8518 261.197 33.1744 260.891 34.4864Z" fill="#85714D"/>
<path d="M296.094 33.5544C295.891 33.4344 295.64 33.4717 295.474 33.653C295.412 33.721 295.355 33.8051 295.312 33.8824C295.022 34.4504 294.678 34.9824 294.38 35.5437C293.855 36.5597 293.298 37.565 292.766 38.581C292.022 39.997 291.323 41.4344 290.615 42.8677C289.995 44.1171 289.355 45.3517 288.724 46.5957C288.246 47.549 287.792 48.5237 287.292 49.4664C286.547 50.8717 285.599 52.1384 284.584 53.3464C284.318 53.6584 284.058 53.9717 283.724 54.2104C283.386 54.4504 283.287 54.425 283.172 54.029C283.042 53.581 282.99 53.1224 282.974 52.6584C282.922 51.273 283.094 49.9037 283.287 48.5344C283.527 46.8197 283.907 45.133 284.328 43.4557C284.823 41.4717 285.396 39.5077 285.855 37.5184C286.052 36.653 286.214 35.7784 286.24 34.909C286.24 34.2784 286.156 33.6797 285.948 33.101C285.708 32.425 285.318 31.857 284.678 31.4917C284.079 31.153 283.432 31.117 282.771 31.205C281.938 31.3157 281.12 31.513 280.318 31.789C279.307 32.1384 278.355 32.6331 277.391 33.0917C276.698 33.4197 276.006 33.7477 275.26 33.9451C275.156 33.9717 275.058 33.9824 274.954 33.9864C274.735 33.9864 274.61 33.841 274.484 33.6957C274.364 33.5597 274.495 33.4451 274.542 33.3304C275.318 31.4557 275.938 29.5344 276.24 27.5237C276.323 26.977 276.328 26.429 276.11 25.8984C275.74 24.9864 274.719 24.7677 274 25.4451C273.76 25.6744 273.563 25.9397 273.396 26.2317C272.984 26.945 272.656 27.701 272.422 28.4917C272.042 29.789 271.798 31.1064 271.943 32.4664C272.036 33.3464 272.307 34.1637 272.807 34.9037C273.271 35.5917 273.902 36.0237 274.74 36.1117C275.235 36.1637 275.719 36.0811 276.198 35.9451C277.167 35.6691 278.074 35.237 278.974 34.7997C279.683 34.461 280.386 34.1064 281.136 33.857C281.798 33.6384 282.474 33.4557 283.178 33.409C283.506 33.3877 283.588 33.445 283.719 33.7477C283.844 34.029 283.891 34.325 283.907 34.633C283.922 35.1637 283.85 35.685 283.75 36.2104C283.5 37.529 283.126 38.8197 282.798 40.1224C282.151 42.669 281.479 45.2104 281.146 47.825C281.022 48.7997 280.938 49.7784 280.896 50.7584C280.86 51.4611 280.912 52.1584 281 52.8517C281.088 53.5437 281.235 54.2157 281.563 54.8357C281.864 55.3984 282.292 55.8304 282.954 55.9504C283.454 56.0397 283.907 55.8984 284.328 55.633C284.714 55.3877 285.042 55.0704 285.334 54.7157C286.599 53.1904 287.714 51.5597 288.604 49.7784C289.318 48.3571 290.006 46.925 290.73 45.5077C291.683 43.633 292.599 41.7424 293.511 39.8517C294.37 38.0757 295.266 36.3251 296.151 34.5597C296.224 34.4197 296.287 34.2677 296.323 34.1117C296.386 33.8931 296.282 33.6584 296.094 33.5544V33.5544Z" fill="#85714D"/>
<path d="M309.245 33.0958C308.849 33.1012 308.484 33.1905 308.193 33.4918C307.735 33.9611 307.312 34.4558 306.869 34.9398C306.052 35.8412 305.245 36.7625 304.38 37.6225C303.609 38.3878 302.771 39.0598 301.839 39.6118C301.224 39.9718 300.604 40.3158 299.912 40.5025C298.807 40.8052 297.839 40.5918 297.036 39.7372C296.579 39.2532 296.328 38.6852 296.251 38.0398C296.104 36.8985 296.031 35.7478 296.021 34.5918C296.016 34.4972 296.016 34.3985 296.036 34.3105C296.131 33.9825 296.083 33.6532 296.093 33.3198C296.093 33.1585 296.041 33.0025 295.943 32.8718C295.776 32.6532 295.516 32.6172 295.297 32.7892C295.151 32.8932 295.073 33.0438 295.011 33.2052C294.912 33.4612 294.849 33.7265 294.828 34.0025C294.76 34.9345 294.656 35.8678 294.672 36.8718C294.683 37.2012 294.677 37.5958 294.703 37.9918C294.792 39.3305 295.323 40.4398 296.36 41.2838C297.552 42.2585 298.896 42.4865 300.364 42.0958C301.401 41.8198 302.323 41.2945 303.208 40.7105C304.536 39.8412 305.651 38.7372 306.703 37.5652C307.287 36.9092 307.875 36.2532 308.453 35.5918C308.755 35.2532 309.052 34.9092 309.344 34.5598C309.584 34.2732 309.697 33.9345 309.688 33.5598C309.677 33.2892 309.5 33.0958 309.245 33.0958V33.0958ZM295.625 30.4718C295.839 30.5345 296.021 30.4718 296.156 30.3051C296.297 30.1331 296.317 29.9252 296.193 29.7478C296.093 29.6012 296.109 29.4772 296.167 29.3305C296.224 29.1905 296.292 29.0545 296.38 28.9292C296.511 28.7372 296.636 28.5345 296.735 28.3198C296.964 27.8105 296.636 27.3198 296.079 27.3358C295.708 27.3465 295.437 27.5385 295.208 27.8105C294.896 28.1798 294.855 28.6278 294.844 29.0865C294.833 29.3358 294.86 29.5812 294.937 29.8158C295.052 30.1492 295.281 30.3731 295.625 30.4718V30.4718Z" fill="#85714D"/>
<path d="M331.505 33.8679C331.182 33.8932 330.89 33.9772 330.63 34.1639C330.426 34.3052 330.229 34.4559 330.046 34.6172C329.193 35.3932 328.344 36.1799 327.484 36.9506C326.817 37.5492 326.12 38.1172 325.369 38.6172C323.964 39.5599 322.536 39.3985 321.312 38.4559C320.896 38.1385 320.541 37.7585 320.213 37.3465C319.708 36.7105 319.276 36.0185 318.802 35.3572C318.421 34.8359 318.046 34.3106 317.541 33.8986C317.036 33.4826 316.464 33.2426 315.797 33.2732C315.374 33.2946 314.973 33.4145 314.598 33.6012C313.584 34.1012 312.724 34.8105 311.912 35.5759C310.942 36.4865 310.093 37.5079 309.193 38.4826C308.969 38.7212 308.734 38.9505 308.442 39.1585C308.401 38.9559 308.442 38.8105 308.458 38.6585C308.588 37.4092 308.964 36.2372 309.584 35.1492C310.026 34.3772 310.573 33.6906 311.281 33.1439C311.53 32.9506 311.797 32.7892 312.098 32.6959C312.546 32.5599 312.849 32.6799 313.082 33.0812C313.188 33.2625 313.281 33.4505 313.385 33.6279C313.478 33.7892 313.604 33.8572 313.729 33.8252C313.88 33.7892 313.937 33.6692 313.953 33.5292C314.005 33.0959 314.036 32.6639 313.901 32.2372C313.614 31.3305 312.745 30.9346 311.896 30.9772C311.182 31.0132 310.568 31.3199 310 31.7372C309.281 32.2585 308.697 32.9145 308.193 33.6385C307.245 34.9972 306.65 36.5025 306.38 38.1279C306.276 38.7585 306.245 39.3879 306.421 40.0132C306.536 40.4145 306.724 40.7732 307.046 41.0439C307.63 41.5292 308.385 41.5705 309.093 41.1852C309.478 40.9772 309.812 40.7012 310.13 40.3986C311.021 39.5492 311.802 38.5959 312.661 37.7105C313.385 36.9612 314.15 36.2586 315.041 35.7012C315.24 35.5759 315.442 35.4506 315.672 35.3826C315.854 35.3252 316.021 35.3466 316.177 35.4772C316.306 35.5866 316.426 35.7066 316.536 35.8359C317.046 36.4346 317.489 37.0866 317.958 37.7159C318.584 38.5492 319.245 39.3519 320.104 39.9665C321.068 40.6639 322.136 41.0399 323.333 41.0399C324.26 41.0439 325.098 40.7585 325.89 40.2945C326.942 39.6799 327.838 38.8625 328.713 38.0185C329.598 37.1639 330.458 36.2785 331.328 35.4145C331.584 35.1639 331.776 34.8719 331.926 34.5546C332.098 34.2012 331.869 33.8412 331.505 33.8679V33.8679Z" fill="#85714D"/>
</svg>
